<svg xmlns="http://www.w3.org/2000/svg" xmlns:xlink="http://www.w3.org/1999/xlink" width="500" zoomAndPan="magnify" viewBox="0 0 375 374.999991" height="500" preserveAspectRatio="xMidYMid meet" version="1.0"><defs><g/><clipPath id="e6196be991"><path d="M 141 80 L 201 80 L 201 142 L 141 142 Z M 141 80 " clip-rule="nonzero"/></clipPath><clipPath id="bcddb82194"><path d="M 223.546875 9.960938 L 315.035156 112.273438 L 170.234375 241.753906 L 78.746094 139.445312 Z M 223.546875 9.960938 " clip-rule="nonzero"/></clipPath><clipPath id="2d6dc99a4f"><path d="M 223.546875 9.960938 L 315.035156 112.273438 L 170.234375 241.753906 L 78.746094 139.445312 Z M 223.546875 9.960938 " clip-rule="nonzero"/></clipPath><clipPath id="b73a9bebd3"><path d="M 223.546875 9.960938 L 315.035156 112.273438 L 170.234375 241.753906 L 78.746094 139.445312 Z M 223.546875 9.960938 " clip-rule="nonzero"/></clipPath><clipPath id="a50d7803bc"><path d="M 173 120 L 236 120 L 236 181 L 173 181 Z M 173 120 " clip-rule="nonzero"/></clipPath><clipPath id="228f6a19f4"><path d="M 223.546875 9.960938 L 315.035156 112.273438 L 170.234375 241.753906 L 78.746094 139.445312 Z M 223.546875 9.960938 " clip-rule="nonzero"/></clipPath><clipPath id="8bb26ebbc6"><path d="M 223.546875 9.960938 L 315.035156 112.273438 L 170.234375 241.753906 L 78.746094 139.445312 Z M 223.546875 9.960938 " clip-rule="nonzero"/></clipPath><clipPath id="1662a7263e"><path d="M 223.546875 9.960938 L 315.035156 112.273438 L 170.234375 241.753906 L 78.746094 139.445312 Z M 223.546875 9.960938 " clip-rule="nonzero"/></clipPath><clipPath id="8718f99718"><path d="M 115 40 L 256 40 L 256 207 L 115 207 Z M 115 40 " clip-rule="nonzero"/></clipPath><clipPath id="7e6a07031a"><path d="M 223.546875 9.960938 L 315.035156 112.273438 L 170.234375 241.753906 L 78.746094 139.445312 Z M 223.546875 9.960938 " clip-rule="nonzero"/></clipPath><clipPath id="aae11326e7"><path d="M 223.546875 9.960938 L 315.035156 112.273438 L 170.234375 241.753906 L 78.746094 139.445312 Z M 223.546875 9.960938 " clip-rule="nonzero"/></clipPath><clipPath id="099eff3029"><path d="M 223.546875 9.960938 L 315.035156 112.273438 L 170.234375 241.753906 L 78.746094 139.445312 Z M 223.546875 9.960938 " clip-rule="nonzero"/></clipPath><clipPath id="460f41fe50"><path d="M 222 53 L 278 53 L 278 108 L 222 108 Z M 222 53 " clip-rule="nonzero"/></clipPath><clipPath id="9a837d9271"><path d="M 223.546875 9.960938 L 315.035156 112.273438 L 170.234375 241.753906 L 78.746094 139.445312 Z M 223.546875 9.960938 " clip-rule="nonzero"/></clipPath><clipPath id="a8a7d2f084"><path d="M 223.546875 9.960938 L 315.035156 112.273438 L 170.234375 241.753906 L 78.746094 139.445312 Z M 223.546875 9.960938 " clip-rule="nonzero"/></clipPath><clipPath id="cfe1d94ced"><path d="M 223.546875 9.960938 L 315.035156 112.273438 L 170.234375 241.753906 L 78.746094 139.445312 Z M 223.546875 9.960938 " clip-rule="nonzero"/></clipPath></defs><g clip-path="url(#e6196be991)"><g clip-path="url(#bcddb82194)"><g clip-path="url(#2d6dc99a4f)"><g clip-path="url(#b73a9bebd3)"><path fill="#ed2224" d="M 145.878906 127.300781 C 143.03125 121.875 143.875 115.097656 148.117188 110.472656 C 147.25 109.832031 146.449219 109.070312 145.6875 108.21875 C 139.644531 101.457031 140.1875 91.050781 146.972656 84.980469 C 153.496094 79.148438 163.386719 79.519531 169.527344 85.660156 C 173.191406 83.09375 177.378906 81.707031 181.632812 81.449219 L 200.96875 103.074219 L 158.289062 141.242188 Z M 145.878906 127.300781 " fill-opacity="1" fill-rule="nonzero"/></g></g></g></g><g clip-path="url(#a50d7803bc)"><g clip-path="url(#228f6a19f4)"><g clip-path="url(#8bb26ebbc6)"><g clip-path="url(#1662a7263e)"><path fill="#ed2224" d="M 186.199219 172.386719 C 191.273438 175.820312 198.101562 175.738281 203.167969 172.035156 C 203.707031 172.96875 204.375 173.847656 205.140625 174.703125 C 211.183594 181.460938 221.589844 182.078125 228.375 176.011719 C 234.898438 170.179688 235.632812 160.308594 230.210938 153.523438 C 233.171875 150.167969 235.011719 146.160156 235.742188 141.960938 L 216.40625 120.335938 L 173.722656 158.503906 Z M 186.199219 172.386719 " fill-opacity="1" fill-rule="nonzero"/></g></g></g></g><g clip-path="url(#8718f99718)"><g clip-path="url(#7e6a07031a)"><g clip-path="url(#aae11326e7)"><g clip-path="url(#099eff3029)"><path fill="#010101" d="M 218.925781 95.640625 L 207.839844 83.644531 C 205.636719 81.246094 204.441406 78.0625 204.59375 74.796875 C 204.886719 68.925781 205.332031 59.195312 205.710938 51.769531 C 205.992188 46.082031 201.683594 41.195312 195.945312 40.71875 L 195.699219 40.703125 C 190.050781 40.261719 185.117188 44.375 184.585938 50.050781 L 181.660156 81.484375 L 181.195312 86.503906 L 192.230469 98.84375 L 165.316406 122.910156 L 145.878906 127.300781 L 130.480469 130.796875 L 115.808594 167.832031 C 114.292969 171.609375 115.21875 175.679688 117.714844 178.46875 C 118.945312 179.847656 120.566406 180.9375 122.53125 181.484375 C 127.5625 182.953125 132.910156 180.355469 134.921875 175.484375 L 145.183594 150.007812 L 173.367188 141.875 L 180.113281 149.421875 L 135.234375 189.554688 C 131.660156 192.75 131.355469 198.277344 134.554688 201.855469 L 136.460938 203.988281 C 139.660156 207.566406 145.191406 207.878906 148.761719 204.683594 L 226.621094 135.058594 L 232.753906 141.917969 C 232.753906 141.917969 227.730469 156.09375 224.082031 166.328125 C 222.085938 171.949219 225.300781 178.050781 231.136719 179.5625 L 231.382812 179.640625 C 236.144531 180.875 241.050781 178.378906 242.886719 173.898438 L 254.773438 144.902344 C 256.113281 141.582031 255.941406 137.894531 254.371094 134.753906 C 253.867188 133.726562 253.203125 132.785156 252.4375 131.933594 L 231.972656 109.839844 L 228.949219 106.523438 " fill-opacity="1" fill-rule="nonzero"/></g></g></g></g><g clip-path="url(#460f41fe50)"><g clip-path="url(#9a837d9271)"><g clip-path="url(#a8a7d2f084)"><g clip-path="url(#cfe1d94ced)"><path fill="#010101" d="M 268.054688 100.3125 C 267.394531 100.902344 266.707031 101.457031 265.992188 101.980469 C 265.277344 102.503906 264.539062 102.992188 263.777344 103.441406 C 263.011719 103.890625 262.230469 104.304688 261.425781 104.675781 C 260.621094 105.050781 259.804688 105.382812 258.964844 105.675781 C 258.128906 105.96875 257.28125 106.21875 256.421875 106.425781 C 255.558594 106.636719 254.691406 106.800781 253.8125 106.925781 C 252.9375 107.050781 252.054688 107.128906 251.167969 107.167969 C 250.285156 107.203125 249.398438 107.199219 248.515625 107.148438 C 247.628906 107.097656 246.75 107.003906 245.871094 106.871094 C 244.996094 106.734375 244.128906 106.554688 243.273438 106.332031 C 242.414062 106.109375 241.566406 105.847656 240.734375 105.542969 C 239.902344 105.238281 239.085938 104.894531 238.289062 104.507812 C 237.488281 104.125 236.710938 103.703125 235.953125 103.242188 C 235.195312 102.78125 234.464844 102.28125 233.753906 101.75 C 233.046875 101.214844 232.367188 100.648438 231.714844 100.050781 C 231.0625 99.449219 230.4375 98.820312 229.847656 98.160156 C 229.257812 97.496094 228.699219 96.808594 228.175781 96.09375 C 227.652344 95.378906 227.164062 94.636719 226.714844 93.875 C 226.261719 93.113281 225.851562 92.328125 225.476562 91.523438 C 225.101562 90.71875 224.769531 89.898438 224.476562 89.0625 C 224.183594 88.226562 223.929688 87.378906 223.722656 86.515625 C 223.511719 85.65625 223.34375 84.785156 223.21875 83.90625 C 223.09375 83.03125 223.011719 82.148438 222.976562 81.261719 C 222.9375 80.378906 222.941406 79.492188 222.992188 78.609375 C 223.039062 77.722656 223.132812 76.84375 223.269531 75.964844 C 223.402344 75.089844 223.582031 74.222656 223.800781 73.367188 C 224.023438 72.507812 224.285156 71.664062 224.589844 70.832031 C 224.894531 69.996094 225.238281 69.183594 225.621094 68.382812 C 226.003906 67.585938 226.425781 66.808594 226.886719 66.050781 C 227.347656 65.292969 227.84375 64.5625 228.375 63.851562 C 228.90625 63.144531 229.472656 62.464844 230.074219 61.8125 C 230.671875 61.160156 231.300781 60.539062 231.960938 59.949219 C 232.621094 59.359375 233.308594 58.800781 234.023438 58.277344 C 234.742188 57.753906 235.480469 57.269531 236.242188 56.820312 C 237.003906 56.367188 237.789062 55.957031 238.59375 55.585938 C 239.394531 55.210938 240.214844 54.878906 241.050781 54.585938 C 241.886719 54.292969 242.734375 54.042969 243.597656 53.832031 C 244.457031 53.625 245.328125 53.457031 246.203125 53.332031 C 247.082031 53.210938 247.964844 53.128906 248.847656 53.09375 C 249.734375 53.054688 250.621094 53.0625 251.503906 53.113281 C 252.390625 53.160156 253.269531 53.253906 254.144531 53.390625 C 255.019531 53.527344 255.886719 53.707031 256.746094 53.925781 C 257.605469 54.148438 258.449219 54.414062 259.28125 54.714844 C 260.113281 55.019531 260.929688 55.367188 261.730469 55.75 C 262.527344 56.136719 263.304688 56.558594 264.0625 57.019531 C 264.820312 57.480469 265.554688 57.976562 266.261719 58.511719 C 266.96875 59.042969 267.652344 59.609375 268.304688 60.210938 C 268.957031 60.808594 269.578125 61.441406 270.171875 62.101562 C 270.761719 62.761719 271.320312 63.449219 271.84375 64.167969 C 272.367188 64.882812 272.851562 65.621094 273.304688 66.386719 C 273.753906 67.148438 274.167969 67.933594 274.539062 68.734375 C 274.914062 69.539062 275.25 70.359375 275.542969 71.195312 C 275.835938 72.035156 276.085938 72.882812 276.296875 73.742188 C 276.507812 74.605469 276.675781 75.472656 276.796875 76.351562 C 276.921875 77.230469 277.003906 78.109375 277.042969 78.996094 C 277.082031 79.882812 277.074219 80.765625 277.027344 81.652344 C 276.976562 82.539062 276.886719 83.417969 276.75 84.292969 C 276.613281 85.167969 276.4375 86.035156 276.214844 86.894531 C 275.996094 87.753906 275.730469 88.597656 275.429688 89.429688 C 275.125 90.261719 274.78125 91.078125 274.398438 91.875 C 274.011719 92.675781 273.589844 93.453125 273.132812 94.210938 C 272.671875 94.964844 272.175781 95.699219 271.640625 96.40625 C 271.109375 97.113281 270.542969 97.792969 269.945312 98.445312 C 269.34375 99.101562 268.714844 99.722656 268.054688 100.3125 Z M 268.054688 100.3125 " fill-opacity="1" fill-rule="nonzero"/></g></g></g></g><g fill="#000000" fill-opacity="1"><g transform="translate(40.73881, 294.085958)"><g><path d="M 8.800781 0 L 9.789062 0 C 12.816406 0 14.464844 -1.648438 14.464844 -4.675781 C 14.410156 -7.699219 14.410156 -10.726562 14.410156 -13.75 L 16.445312 -13.75 C 20.902344 -13.75 22.386719 -9.679688 23.15625 -4.457031 C 23.597656 -1.484375 25.191406 0 28.105469 0 L 29.867188 0 C 33.113281 0 34.816406 -1.980469 34.101562 -5.28125 C 32.5625 -12.101562 30.308594 -15.511719 26.675781 -16.609375 L 26.675781 -16.832031 C 31.351562 -17.984375 34.210938 -21.726562 34.210938 -26.675781 C 34.210938 -34.707031 29.425781 -38.117188 18.261719 -38.117188 L 8.800781 -38.117188 C 5.773438 -38.117188 4.125 -36.46875 4.125 -33.441406 C 4.179688 -28.65625 4.234375 -23.871094 4.234375 -19.085938 C 4.234375 -14.246094 4.179688 -9.460938 4.125 -4.675781 C 4.125 -1.648438 5.773438 0 8.800781 0 Z M 14.410156 -19.800781 C 14.410156 -24.972656 14.410156 -27.777344 14.464844 -30.527344 L 17.105469 -30.527344 C 21.671875 -30.527344 23.597656 -29.097656 23.597656 -25.6875 C 23.597656 -21.507812 21.453125 -19.800781 16.28125 -19.800781 Z M 14.410156 -19.800781 "/></g></g></g><g fill="#000000" fill-opacity="1"><g transform="translate(78.234929, 294.085958)"><g><path d="M 7.808594 -34.265625 C 11.878906 -34.265625 13.53125 -35.640625 13.53125 -38.941406 C 13.53125 -42.242188 11.878906 -43.617188 7.808594 -43.617188 C 3.742188 -43.617188 2.089844 -42.242188 2.089844 -38.941406 C 2.089844 -35.640625 3.742188 -34.265625 7.808594 -34.265625 Z M 7.976562 0 C 11 0 12.597656 -1.648438 12.539062 -4.675781 C 12.539062 -7.808594 12.484375 -10.890625 12.539062 -14.082031 C 12.597656 -17.4375 12.597656 -21.890625 12.597656 -25.742188 C 12.597656 -28.765625 10.945312 -30.417969 7.921875 -30.417969 L 7.867188 -30.417969 C 4.839844 -30.417969 3.191406 -28.765625 3.191406 -25.796875 C 3.246094 -22.332031 3.246094 -17.492188 3.300781 -9.351562 L 3.300781 -4.675781 C 3.300781 -1.648438 4.949219 0 7.976562 0 Z M 7.976562 0 "/></g></g></g><g fill="#000000" fill-opacity="1"><g transform="translate(93.849165, 294.085958)"><g><path d="M 14.632812 0.660156 C 23.429688 0.660156 28.050781 -2.75 28.050781 -9.515625 C 28.050781 -21.671875 11.441406 -15.179688 11.441406 -21.890625 C 11.441406 -23.597656 12.320312 -24.585938 15.289062 -24.585938 C 16.886719 -24.585938 17.929688 -24.3125 18.535156 -23.707031 C 20.1875 -21.835938 20.460938 -20.460938 23.046875 -20.460938 L 23.265625 -20.460938 C 25.851562 -20.460938 27.832031 -22.167969 26.953125 -25.136719 C 25.742188 -28.988281 21.890625 -30.910156 15.289062 -30.910156 C 6.65625 -30.910156 2.363281 -27.832031 2.363281 -21.5625 C 2.363281 -8.636719 18.921875 -15.402344 18.921875 -8.304688 C 18.921875 -6.65625 17.710938 -5.445312 14.246094 -5.445312 C 12.429688 -5.445312 11.386719 -5.71875 10.835938 -6.433594 C 9.242188 -8.527344 9.019531 -9.957031 6.378906 -9.957031 L 6.214844 -9.957031 C 3.628906 -9.957031 1.59375 -8.195312 2.585938 -5.171875 C 3.796875 -1.320312 7.535156 0.660156 14.632812 0.660156 Z M 14.632812 0.660156 "/></g></g></g><g fill="#000000" fill-opacity="1"><g transform="translate(123.97803, 294.085958)"><g><path d="M 29.8125 -5.171875 C 27.117188 -14.027344 25.246094 -16.28125 20.40625 -16.832031 L 20.40625 -17.050781 C 23.265625 -18.207031 26.183594 -21.230469 28.21875 -24.972656 C 29.867188 -28.105469 27.941406 -30.417969 24.476562 -30.417969 L 23.375 -30.417969 C 20.570312 -30.417969 19.140625 -28.988281 18.261719 -26.292969 C 17.160156 -22.882812 15.125 -19.855469 12.484375 -18.371094 L 12.484375 -20.515625 C 12.539062 -25.355469 12.539062 -30.308594 12.539062 -35.148438 C 12.539062 -38.171875 10.890625 -39.824219 7.867188 -39.824219 L 7.535156 -39.824219 C 4.511719 -39.824219 2.859375 -38.171875 2.859375 -35.148438 C 2.914062 -30.308594 3.023438 -25.355469 3.023438 -20.515625 C 3.023438 -15.070312 2.914062 -10.011719 2.859375 -4.675781 C 2.859375 -1.648438 4.511719 0 7.535156 0 L 7.867188 0 C 10.890625 0 12.539062 -1.648438 12.539062 -4.675781 C 12.484375 -7.316406 12.484375 -9.84375 12.484375 -12.429688 L 13.3125 -12.429688 C 16.0625 -12.429688 17.269531 -10.726562 19.03125 -4.289062 C 19.800781 -1.375 21.5625 0 24.3125 0 L 25.851562 0 C 29.207031 0 30.800781 -2.035156 29.8125 -5.171875 Z M 29.8125 -5.171875 "/></g></g></g><g fill="#000000" fill-opacity="1"><g transform="translate(156.910833, 294.085958)"><g/></g></g><g fill="#000000" fill-opacity="1"><g transform="translate(170.655741, 294.085958)"><g><path d="M 18.535156 0.550781 C 26.402344 0.550781 31.351562 -2.53125 32.453125 -9.242188 C 33.003906 -12.429688 30.96875 -14.191406 27.941406 -14.191406 L 27.886719 -14.191406 C 25.027344 -14.191406 23.871094 -12.652344 22.9375 -9.734375 C 22.277344 -7.753906 20.957031 -7.039062 18.589844 -7.039062 C 15.457031 -7.039062 13.253906 -9.351562 13.253906 -19.085938 C 13.253906 -28.050781 14.796875 -31.242188 18.589844 -31.242188 C 21.394531 -31.242188 22.714844 -30.140625 23.15625 -27.28125 C 23.597656 -24.148438 24.75 -22.441406 27.777344 -22.441406 L 28.105469 -22.441406 C 31.078125 -22.441406 33.113281 -24.035156 32.835938 -27.117188 C 32.175781 -34.597656 27.0625 -38.667969 18.921875 -38.667969 C 8.085938 -38.667969 2.695312 -32.121094 2.695312 -19.085938 C 2.695312 -5.996094 7.589844 0.550781 18.535156 0.550781 Z M 18.535156 0.550781 "/></g></g></g><g fill="#000000" fill-opacity="1"><g transform="translate(205.567825, 294.085958)"><g><path d="M 30.308594 -4.730469 C 30.25 -9.679688 30.140625 -14.300781 30.25 -18.152344 C 30.472656 -27.226562 27.558594 -30.910156 21.78125 -30.910156 C 17.546875 -30.910156 14.300781 -29.097656 12.210938 -25.246094 L 12.15625 -25.355469 C 12.539062 -27.613281 12.539062 -29.921875 12.539062 -32.453125 C 12.539062 -33.332031 12.539062 -34.652344 12.539062 -36.082031 C 12.539062 -38.503906 10.945312 -39.824219 7.921875 -39.824219 L 7.535156 -39.824219 C 4.511719 -39.824219 2.859375 -38.171875 2.859375 -35.148438 C 2.914062 -30.140625 3.023438 -25.464844 3.023438 -20.515625 C 3.023438 -15.070312 2.914062 -9.957031 2.859375 -4.675781 C 2.859375 -1.648438 4.511719 0 7.535156 0 L 7.921875 0 C 10.945312 0 12.597656 -1.648438 12.597656 -4.675781 C 12.539062 -9.679688 12.429688 -14.574219 12.539062 -19.691406 C 13.421875 -21.726562 15.015625 -22.9375 17.160156 -22.992188 C 19.636719 -23.046875 20.902344 -21.835938 20.902344 -18.261719 C 20.902344 -14.464844 20.847656 -9.789062 20.792969 -4.730469 C 20.792969 -1.648438 22.441406 0 25.464844 0 L 25.632812 0 C 28.65625 0 30.308594 -1.648438 30.308594 -4.730469 Z M 30.308594 -4.730469 "/></g></g></g><g fill="#000000" fill-opacity="1"><g transform="translate(239.050445, 294.085958)"><g><path d="M 16.171875 0.550781 C 22.9375 0.550781 27.0625 -1.375 28.382812 -5.445312 C 29.207031 -7.921875 27.171875 -9.460938 24.3125 -9.460938 C 21.945312 -9.460938 21.726562 -7.921875 19.636719 -6.546875 C 18.867188 -6.105469 17.710938 -5.832031 16.226562 -5.832031 C 13.367188 -5.832031 11.277344 -7.207031 11.054688 -12.871094 L 28.601562 -12.871094 C 29.042969 -12.871094 29.371094 -13.199219 29.425781 -13.75 C 30.472656 -23.980469 26.402344 -30.910156 16.171875 -30.910156 C 6.65625 -30.910156 1.980469 -25.796875 1.980469 -15.675781 C 1.980469 -4.839844 6.324219 0.550781 16.171875 0.550781 Z M 11.109375 -18.042969 C 11 -22.496094 12.871094 -24.640625 15.730469 -24.640625 C 18.921875 -24.640625 20.242188 -22.441406 20.132812 -18.042969 Z M 11.109375 -18.042969 "/></g></g></g><g fill="#000000" fill-opacity="1"><g transform="translate(270.82868, 294.085958)"><g><path d="M 16.117188 0.550781 C 22.769531 0.550781 26.785156 -1.980469 28.105469 -6.765625 C 28.875 -9.570312 27.0625 -11.277344 24.421875 -11.277344 C 21.671875 -11.277344 21.285156 -9.679688 19.527344 -7.316406 C 18.867188 -6.492188 17.765625 -6.160156 16.226562 -6.160156 C 13.3125 -6.160156 11.386719 -7.867188 11.386719 -15.070312 C 11.386719 -21.394531 12.707031 -23.597656 16.226562 -23.597656 C 18.152344 -23.597656 19.140625 -23.101562 19.691406 -21.945312 C 20.847656 -19.25 21.5625 -17.765625 24.421875 -17.765625 C 27.171875 -17.765625 28.988281 -19.582031 28.273438 -22.660156 C 27.007812 -27.996094 23.15625 -30.910156 16.390625 -30.910156 C 6.710938 -30.910156 1.980469 -25.578125 1.980469 -15.070312 C 1.980469 -4.621094 6.324219 0.550781 16.117188 0.550781 Z M 16.117188 0.550781 "/></g></g></g><g fill="#000000" fill-opacity="1"><g transform="translate(301.287403, 294.085958)"><g><path d="M 29.8125 -5.171875 C 27.117188 -14.027344 25.246094 -16.28125 20.40625 -16.832031 L 20.40625 -17.050781 C 23.265625 -18.207031 26.183594 -21.230469 28.21875 -24.972656 C 29.867188 -28.105469 27.941406 -30.417969 24.476562 -30.417969 L 23.375 -30.417969 C 20.570312 -30.417969 19.140625 -28.988281 18.261719 -26.292969 C 17.160156 -22.882812 15.125 -19.855469 12.484375 -18.371094 L 12.484375 -20.515625 C 12.539062 -25.355469 12.539062 -30.308594 12.539062 -35.148438 C 12.539062 -38.171875 10.890625 -39.824219 7.867188 -39.824219 L 7.535156 -39.824219 C 4.511719 -39.824219 2.859375 -38.171875 2.859375 -35.148438 C 2.914062 -30.308594 3.023438 -25.355469 3.023438 -20.515625 C 3.023438 -15.070312 2.914062 -10.011719 2.859375 -4.675781 C 2.859375 -1.648438 4.511719 0 7.535156 0 L 7.867188 0 C 10.890625 0 12.539062 -1.648438 12.539062 -4.675781 C 12.484375 -7.316406 12.484375 -9.84375 12.484375 -12.429688 L 13.3125 -12.429688 C 16.0625 -12.429688 17.269531 -10.726562 19.03125 -4.289062 C 19.800781 -1.375 21.5625 0 24.3125 0 L 25.851562 0 C 29.207031 0 30.800781 -2.035156 29.8125 -5.171875 Z M 29.8125 -5.171875 "/></g></g></g><g fill="#ff0024" fill-opacity="1"><g transform="translate(105.209058, 238.506242)"><g><path d="M 26.265625 -4.78125 C 23.742188 -2.40625 20.753906 -1.21875 17.296875 -1.21875 C 15.367188 -1.21875 13.664062 -1.550781 12.1875 -2.21875 C 10.707031 -2.882812 9.472656 -3.773438 8.484375 -4.890625 C 7.492188 -6.003906 6.742188 -7.285156 6.234375 -8.734375 C 5.734375 -10.191406 5.484375 -11.710938 5.484375 -13.296875 C 5.484375 -14.972656 5.75 -16.507812 6.28125 -17.90625 C 6.8125 -19.300781 7.554688 -20.503906 8.515625 -21.515625 C 9.484375 -22.535156 10.625 -23.328125 11.9375 -23.890625 C 13.257812 -24.460938 14.703125 -24.75 16.265625 -24.75 C 17.328125 -24.75 18.296875 -24.625 19.171875 -24.375 C 20.046875 -24.125 20.820312 -23.800781 21.5 -23.40625 C 22.1875 -23.019531 22.742188 -22.570312 23.171875 -22.0625 C 23.609375 -21.550781 23.910156 -21.039062 24.078125 -20.53125 L 26.828125 -20.53125 C 26.453125 -21.363281 25.972656 -22.140625 25.390625 -22.859375 C 24.816406 -23.578125 24.097656 -24.191406 23.234375 -24.703125 C 22.367188 -25.222656 21.351562 -25.628906 20.1875 -25.921875 C 19.03125 -26.222656 17.707031 -26.375 16.21875 -26.375 C 14.070312 -26.375 12.113281 -26.066406 10.34375 -25.453125 C 8.582031 -24.835938 7.070312 -23.953125 5.8125 -22.796875 C 4.550781 -21.648438 3.578125 -20.265625 2.890625 -18.640625 C 2.203125 -17.023438 1.859375 -15.21875 1.859375 -13.21875 C 1.859375 -11.488281 2.132812 -9.800781 2.6875 -8.15625 C 3.238281 -6.519531 4.09375 -5.066406 5.25 -3.796875 C 6.414062 -2.523438 7.898438 -1.5 9.703125 -0.71875 C 11.503906 0.0507812 13.65625 0.4375 16.15625 0.4375 C 17.738281 0.4375 19.148438 0.289062 20.390625 0 C 21.640625 -0.289062 22.726562 -0.648438 23.65625 -1.078125 C 24.582031 -1.515625 25.351562 -1.976562 25.96875 -2.46875 C 26.582031 -2.96875 27.050781 -3.40625 27.375 -3.78125 Z M 26.265625 -4.78125 "/></g></g></g><g fill="#ff0024" fill-opacity="1"><g transform="translate(133.324084, 238.506242)"><g><path d="M 2.96875 -25.9375 L 2.96875 0 L 6.109375 0 L 6.109375 -10.703125 C 6.109375 -11.203125 6.144531 -11.804688 6.21875 -12.515625 C 6.289062 -13.234375 6.492188 -13.925781 6.828125 -14.59375 C 7.160156 -15.257812 7.660156 -15.832031 8.328125 -16.3125 C 8.992188 -16.800781 9.921875 -17.046875 11.109375 -17.046875 C 11.953125 -17.046875 12.625 -16.890625 13.125 -16.578125 C 13.632812 -16.265625 14.023438 -15.847656 14.296875 -15.328125 C 14.566406 -14.816406 14.742188 -14.210938 14.828125 -13.515625 C 14.921875 -12.828125 14.96875 -12.113281 14.96875 -11.375 L 14.96875 0 L 18.109375 0 L 18.109375 -12.21875 C 18.109375 -13.601562 17.910156 -14.734375 17.515625 -15.609375 C 17.128906 -16.492188 16.640625 -17.179688 16.046875 -17.671875 C 15.453125 -18.160156 14.800781 -18.492188 14.09375 -18.671875 C 13.394531 -18.847656 12.722656 -18.9375 12.078125 -18.9375 C 11.210938 -18.9375 10.300781 -18.769531 9.34375 -18.4375 C 8.394531 -18.101562 7.503906 -17.460938 6.671875 -16.515625 L 6.265625 -16 L 6.109375 -16 L 6.109375 -25.9375 Z M 2.96875 -25.9375 "/></g></g></g><g fill="#ff0024" fill-opacity="1"><g transform="translate(154.401105, 238.506242)"><g><path d="M 4.15625 -18.53125 L 4.15625 0 L 7.296875 0 L 7.296875 -18.53125 Z M 3.703125 -24.375 C 3.703125 -23.832031 3.898438 -23.363281 4.296875 -22.96875 C 4.691406 -22.570312 5.160156 -22.375 5.703125 -22.375 C 6.242188 -22.375 6.710938 -22.570312 7.109375 -22.96875 C 7.503906 -23.363281 7.703125 -23.832031 7.703125 -24.375 C 7.703125 -24.914062 7.503906 -25.382812 7.109375 -25.78125 C 6.710938 -26.175781 6.242188 -26.375 5.703125 -26.375 C 5.160156 -26.375 4.691406 -26.175781 4.296875 -25.78125 C 3.898438 -25.382812 3.703125 -24.914062 3.703125 -24.375 Z M 3.703125 -24.375 "/></g></g></g><g fill="#ff0024" fill-opacity="1"><g transform="translate(165.810108, 238.506242)"><g><path d="M 12.265625 -1.484375 C 11.367188 -1.484375 10.507812 -1.617188 9.6875 -1.890625 C 8.863281 -2.160156 8.128906 -2.597656 7.484375 -3.203125 C 6.835938 -3.804688 6.320312 -4.609375 5.9375 -5.609375 C 5.5625 -6.609375 5.375 -7.835938 5.375 -9.296875 C 5.375 -10.804688 5.582031 -12.082031 6 -13.125 C 6.414062 -14.175781 6.9375 -15.015625 7.5625 -15.640625 C 8.195312 -16.273438 8.894531 -16.734375 9.65625 -17.015625 C 10.425781 -17.304688 11.160156 -17.453125 11.859375 -17.453125 C 12.992188 -17.453125 13.976562 -17.15625 14.8125 -16.5625 C 15.65625 -15.96875 16.210938 -15.238281 16.484375 -14.375 L 19.046875 -14.375 C 18.796875 -15.257812 18.398438 -15.992188 17.859375 -16.578125 C 17.316406 -17.160156 16.691406 -17.628906 15.984375 -17.984375 C 15.285156 -18.347656 14.53125 -18.597656 13.71875 -18.734375 C 12.914062 -18.867188 12.144531 -18.9375 11.40625 -18.9375 C 9.851562 -18.9375 8.484375 -18.679688 7.296875 -18.171875 C 6.109375 -17.660156 5.109375 -16.972656 4.296875 -16.109375 C 3.484375 -15.242188 2.875 -14.234375 2.46875 -13.078125 C 2.0625 -11.921875 1.859375 -10.6875 1.859375 -9.375 C 1.859375 -7.988281 2.078125 -6.695312 2.515625 -5.5 C 2.960938 -4.300781 3.597656 -3.265625 4.421875 -2.390625 C 5.253906 -1.515625 6.25 -0.820312 7.40625 -0.3125 C 8.570312 0.1875 9.882812 0.4375 11.34375 0.4375 C 12.96875 0.4375 14.390625 0.164062 15.609375 -0.375 C 16.835938 -0.914062 17.867188 -1.507812 18.703125 -2.15625 L 17.640625 -3.5625 C 16.773438 -2.84375 15.914062 -2.316406 15.0625 -1.984375 C 14.207031 -1.648438 13.273438 -1.484375 12.265625 -1.484375 Z M 12.265625 -1.484375 "/></g></g></g><g fill="#ff0024" fill-opacity="1"><g transform="translate(185.961077, 238.506242)"><g><path d="M 9.78125 -18.9375 C 11.582031 -18.9375 12.976562 -18.679688 13.96875 -18.171875 C 14.957031 -17.660156 15.675781 -17 16.125 -16.1875 C 16.582031 -15.375 16.847656 -14.4375 16.921875 -13.375 C 17.003906 -12.3125 17.046875 -11.222656 17.046875 -10.109375 L 17.046875 0 L 14.046875 0 L 14.046875 -1.8125 C 13.328125 -1.125 12.410156 -0.578125 11.296875 -0.171875 C 10.179688 0.234375 9.070312 0.4375 7.96875 0.4375 C 6.90625 0.4375 5.960938 0.253906 5.140625 -0.109375 C 4.328125 -0.484375 3.648438 -0.960938 3.109375 -1.546875 C 2.566406 -2.140625 2.160156 -2.804688 1.890625 -3.546875 C 1.617188 -4.296875 1.484375 -5.050781 1.484375 -5.8125 C 1.484375 -6.601562 1.628906 -7.394531 1.921875 -8.1875 C 2.222656 -8.976562 2.671875 -9.6875 3.265625 -10.3125 C 3.859375 -10.945312 4.585938 -11.460938 5.453125 -11.859375 C 6.316406 -12.253906 7.300781 -12.453125 8.40625 -12.453125 C 9.519531 -12.453125 10.578125 -12.234375 11.578125 -11.796875 C 12.578125 -11.367188 13.398438 -10.757812 14.046875 -9.96875 L 14.046875 -11.5625 C 14.046875 -13.582031 13.738281 -15.085938 13.125 -16.078125 C 12.519531 -17.066406 11.414062 -17.5625 9.8125 -17.5625 C 9.125 -17.5625 8.519531 -17.472656 8 -17.296875 C 7.476562 -17.128906 7.015625 -16.890625 6.609375 -16.578125 C 6.203125 -16.265625 5.828125 -15.878906 5.484375 -15.421875 C 5.140625 -14.972656 4.796875 -14.460938 4.453125 -13.890625 L 2.515625 -15.8125 C 2.859375 -16.1875 3.222656 -16.554688 3.609375 -16.921875 C 3.992188 -17.296875 4.460938 -17.628906 5.015625 -17.921875 C 5.578125 -18.222656 6.238281 -18.46875 7 -18.65625 C 7.769531 -18.84375 8.695312 -18.9375 9.78125 -18.9375 Z M 14.046875 -7.328125 C 13.921875 -7.628906 13.738281 -7.976562 13.5 -8.375 C 13.269531 -8.769531 12.96875 -9.148438 12.59375 -9.515625 C 12.226562 -9.890625 11.785156 -10.207031 11.265625 -10.46875 C 10.742188 -10.726562 10.125 -10.859375 9.40625 -10.859375 C 8.6875 -10.859375 8.03125 -10.710938 7.4375 -10.421875 C 6.851562 -10.140625 6.351562 -9.769531 5.9375 -9.3125 C 5.53125 -8.851562 5.21875 -8.316406 5 -7.703125 C 4.78125 -7.085938 4.671875 -6.445312 4.671875 -5.78125 C 4.671875 -4.988281 4.8125 -4.300781 5.09375 -3.71875 C 5.375 -3.144531 5.738281 -2.648438 6.1875 -2.234375 C 6.632812 -1.828125 7.128906 -1.523438 7.671875 -1.328125 C 8.210938 -1.128906 8.726562 -1.03125 9.21875 -1.03125 C 9.6875 -1.03125 10.160156 -1.117188 10.640625 -1.296875 C 11.128906 -1.472656 11.585938 -1.710938 12.015625 -2.015625 C 12.453125 -2.328125 12.84375 -2.691406 13.1875 -3.109375 C 13.53125 -3.523438 13.816406 -3.984375 14.046875 -4.484375 Z M 14.046875 -7.328125 "/></g></g></g><g fill="#ff0024" fill-opacity="1"><g transform="translate(205.963854, 238.506242)"><g><path d="M 16.1875 1.5625 C 16.1875 2.695312 16.050781 3.65625 15.78125 4.4375 C 15.507812 5.226562 15.128906 5.867188 14.640625 6.359375 C 14.160156 6.859375 13.59375 7.21875 12.9375 7.4375 C 12.289062 7.664062 11.597656 7.78125 10.859375 7.78125 C 9.546875 7.78125 8.488281 7.445312 7.6875 6.78125 C 6.882812 6.113281 6.148438 5.222656 5.484375 4.109375 L 3.453125 5.96875 C 3.617188 6.1875 3.882812 6.472656 4.25 6.828125 C 4.625 7.191406 5.09375 7.550781 5.65625 7.90625 C 6.226562 8.269531 6.910156 8.578125 7.703125 8.828125 C 8.492188 9.085938 9.394531 9.21875 10.40625 9.21875 C 12.28125 9.21875 13.796875 8.953125 14.953125 8.421875 C 16.117188 7.890625 17.023438 7.179688 17.671875 6.296875 C 18.316406 5.410156 18.753906 4.390625 18.984375 3.234375 C 19.222656 2.085938 19.34375 0.898438 19.34375 -0.328125 L 19.34375 -18.53125 L 16.1875 -18.53125 L 16.1875 -15.640625 L 16.046875 -15.640625 C 15.742188 -16.671875 15.101562 -17.476562 14.125 -18.0625 C 13.15625 -18.644531 11.878906 -18.9375 10.296875 -18.9375 C 9.035156 -18.9375 7.882812 -18.707031 6.84375 -18.25 C 5.8125 -17.789062 4.925781 -17.140625 4.1875 -16.296875 C 3.445312 -15.460938 2.875 -14.453125 2.46875 -13.265625 C 2.0625 -12.078125 1.859375 -10.753906 1.859375 -9.296875 C 1.859375 -7.816406 2.0625 -6.476562 2.46875 -5.28125 C 2.875 -4.082031 3.445312 -3.054688 4.1875 -2.203125 C 4.925781 -1.347656 5.804688 -0.691406 6.828125 -0.234375 C 7.859375 0.210938 9.003906 0.4375 10.265625 0.4375 C 11.648438 0.4375 12.851562 0.164062 13.875 -0.375 C 14.894531 -0.914062 15.617188 -1.78125 16.046875 -2.96875 L 16.1875 -2.96875 Z M 16.1875 -7.890625 C 16.1875 -6.847656 16.046875 -5.929688 15.765625 -5.140625 C 15.484375 -4.359375 15.101562 -3.691406 14.625 -3.140625 C 14.15625 -2.597656 13.613281 -2.1875 13 -1.90625 C 12.382812 -1.625 11.742188 -1.484375 11.078125 -1.484375 C 10.484375 -1.484375 9.847656 -1.585938 9.171875 -1.796875 C 8.492188 -2.003906 7.863281 -2.390625 7.28125 -2.953125 C 6.695312 -3.523438 6.210938 -4.328125 5.828125 -5.359375 C 5.453125 -6.398438 5.265625 -7.738281 5.265625 -9.375 C 5.265625 -11.101562 5.5 -12.476562 5.96875 -13.5 C 6.4375 -14.53125 6.984375 -15.316406 7.609375 -15.859375 C 8.242188 -16.398438 8.882812 -16.75 9.53125 -16.90625 C 10.1875 -17.070312 10.703125 -17.15625 11.078125 -17.15625 C 11.890625 -17.15625 12.613281 -16.972656 13.25 -16.609375 C 13.894531 -16.253906 14.429688 -15.773438 14.859375 -15.171875 C 15.296875 -14.566406 15.625 -13.867188 15.84375 -13.078125 C 16.070312 -12.285156 16.1875 -11.46875 16.1875 -10.625 Z M 16.1875 -7.890625 "/></g></g></g><g fill="#ff0024" fill-opacity="1"><g transform="translate(228.26326, 238.506242)"><g><path d="M 21.046875 -9.21875 C 21.046875 -7.9375 20.820312 -6.707031 20.375 -5.53125 C 19.925781 -4.363281 19.289062 -3.332031 18.46875 -2.4375 C 17.644531 -1.550781 16.644531 -0.847656 15.46875 -0.328125 C 14.289062 0.179688 12.972656 0.4375 11.515625 0.4375 C 10.035156 0.4375 8.695312 0.171875 7.5 -0.359375 C 6.300781 -0.890625 5.285156 -1.597656 4.453125 -2.484375 C 3.628906 -3.367188 2.988281 -4.394531 2.53125 -5.5625 C 2.082031 -6.738281 1.859375 -7.957031 1.859375 -9.21875 C 1.859375 -10.507812 2.082031 -11.738281 2.53125 -12.90625 C 2.988281 -14.082031 3.628906 -15.113281 4.453125 -16 C 5.285156 -16.894531 6.300781 -17.609375 7.5 -18.140625 C 8.695312 -18.671875 10.035156 -18.9375 11.515625 -18.9375 C 12.972656 -18.9375 14.289062 -18.671875 15.46875 -18.140625 C 16.644531 -17.609375 17.644531 -16.894531 18.46875 -16 C 19.289062 -15.113281 19.925781 -14.082031 20.375 -12.90625 C 20.820312 -11.738281 21.046875 -10.507812 21.046875 -9.21875 Z M 17.515625 -9.21875 C 17.515625 -10.945312 17.328125 -12.347656 16.953125 -13.421875 C 16.585938 -14.503906 16.109375 -15.335938 15.515625 -15.921875 C 14.929688 -16.515625 14.28125 -16.914062 13.5625 -17.125 C 12.84375 -17.34375 12.148438 -17.453125 11.484375 -17.453125 C 10.816406 -17.453125 10.125 -17.34375 9.40625 -17.125 C 8.6875 -16.914062 8.023438 -16.515625 7.421875 -15.921875 C 6.816406 -15.335938 6.320312 -14.503906 5.9375 -13.421875 C 5.5625 -12.347656 5.375 -10.945312 5.375 -9.21875 C 5.375 -7.519531 5.5625 -6.132812 5.9375 -5.0625 C 6.320312 -3.988281 6.816406 -3.15625 7.421875 -2.5625 C 8.023438 -1.96875 8.6875 -1.5625 9.40625 -1.34375 C 10.125 -1.132812 10.816406 -1.03125 11.484375 -1.03125 C 12.148438 -1.03125 12.84375 -1.132812 13.5625 -1.34375 C 14.28125 -1.5625 14.929688 -1.96875 15.515625 -2.5625 C 16.109375 -3.15625 16.585938 -3.988281 16.953125 -5.0625 C 17.328125 -6.132812 17.515625 -7.519531 17.515625 -9.21875 Z M 17.515625 -9.21875 "/></g></g></g></svg>