<svg xmlns="http://www.w3.org/2000/svg" xmlns:xlink="http://www.w3.org/1999/xlink" width="500" zoomAndPan="magnify" viewBox="0 0 375 374.999991" height="500" preserveAspectRatio="xMidYMid meet" version="1.0"><defs><g/><clipPath id="53943eef46"><path d="M 100 98.058594 L 273 98.058594 L 273 186.558594 L 100 186.558594 Z M 100 98.058594 " clip-rule="nonzero"/></clipPath></defs><g clip-path="url(#53943eef46)"><path fill="#ffffff" d="M 106.402344 183.191406 L 102.652344 183.191406 C 101.6875 183.191406 100.90625 183.972656 100.90625 184.9375 C 100.90625 185.902344 101.6875 186.683594 102.652344 186.683594 L 220.761719 186.683594 C 221.726562 186.683594 222.507812 185.902344 222.507812 184.9375 C 222.507812 183.972656 221.726562 183.191406 220.761719 183.191406 L 135.847656 183.191406 C 140.734375 181.523438 145.695312 179.394531 150.589844 177.136719 C 164.042969 170.9375 176.988281 163.78125 186.453125 163.746094 C 195.917969 163.78125 208.863281 170.9375 222.316406 177.136719 C 227.210938 179.394531 232.171875 181.523438 237.058594 183.191406 L 225.910156 183.191406 C 224.945312 183.191406 224.164062 183.972656 224.164062 184.9375 C 224.164062 185.902344 224.945312 186.683594 225.910156 186.683594 L 270.253906 186.683594 C 271.21875 186.683594 272 185.902344 272 184.9375 C 272 183.972656 271.21875 183.191406 270.253906 183.191406 L 266.503906 183.191406 C 266.652344 183.015625 266.796875 182.835938 266.9375 182.648438 C 268.28125 180.851562 269.277344 178.332031 270.105469 175.570312 C 274.71875 160.164062 270.675781 144.613281 260.675781 131.507812 C 245.917969 112.164062 218.105469 98.148438 186.457031 98.078125 C 186.453125 98.078125 186.453125 98.078125 186.449219 98.078125 C 154.800781 98.148438 126.988281 112.164062 112.230469 131.507812 C 102.230469 144.613281 98.1875 160.164062 102.800781 175.570312 C 103.628906 178.332031 104.625 180.851562 105.964844 182.648438 C 106.109375 182.835938 106.253906 183.015625 106.402344 183.191406 Z M 255.761719 183.191406 L 253.457031 183.191406 C 244.164062 182.855469 233.847656 178.605469 223.777344 173.964844 C 209.804688 167.523438 196.289062 160.285156 186.457031 160.253906 C 186.453125 160.253906 186.449219 160.253906 186.445312 160.253906 C 176.617188 160.285156 163.101562 167.523438 149.125 173.964844 C 139.058594 178.605469 128.742188 182.855469 119.449219 183.191406 L 117.144531 183.191406 C 114.980469 183.109375 112.878906 182.789062 110.863281 182.1875 C 109.761719 181.859375 108.960938 180.964844 108.269531 179.816406 C 107.394531 178.375 106.734375 176.535156 106.148438 174.566406 C 101.855469 160.246094 105.707031 145.8125 115.007812 133.621094 C 129.203125 115.019531 156.003906 101.640625 186.453125 101.570312 C 216.898438 101.640625 243.703125 115.019531 257.898438 133.621094 C 267.195312 145.8125 271.046875 160.246094 266.757812 174.566406 C 266.167969 176.535156 265.507812 178.375 264.636719 179.816406 C 263.945312 180.964844 263.144531 181.859375 262.042969 182.1875 C 260.027344 182.789062 257.925781 183.109375 255.761719 183.191406 Z M 262.796875 154.421875 C 262.074219 151.058594 260.925781 147.761719 259.386719 144.566406 C 258.964844 143.695312 257.921875 143.332031 257.054688 143.753906 C 256.1875 144.167969 255.820312 145.210938 256.238281 146.082031 C 257.65625 149.019531 258.71875 152.058594 259.382812 155.152344 C 259.585938 156.097656 260.511719 156.695312 261.457031 156.492188 C 262.398438 156.292969 263 155.363281 262.796875 154.421875 Z M 253.976562 135.773438 C 247.46875 127.1875 238.003906 119.800781 226.632812 114.621094 C 225.757812 114.21875 224.71875 114.605469 224.320312 115.484375 C 223.921875 116.363281 224.308594 117.398438 225.1875 117.796875 C 235.992188 122.722656 245.007812 129.71875 251.191406 137.882812 C 251.773438 138.652344 252.871094 138.800781 253.636719 138.21875 C 254.40625 137.636719 254.558594 136.542969 253.976562 135.773438 Z M 253.976562 135.773438 " fill-opacity="1" fill-rule="evenodd"/></g><g fill="#ffffff" fill-opacity="1"><g transform="translate(42.555185, 226.919237)"><g><path d="M 17.984375 0 L 13.390625 -6.625 L 8.328125 -6.625 L 8.328125 0 L 2.828125 0 L 2.828125 -23.796875 L 13.125 -23.796875 C 15.226562 -23.796875 17.054688 -23.441406 18.609375 -22.734375 C 20.160156 -22.035156 21.351562 -21.039062 22.1875 -19.75 C 23.03125 -18.457031 23.453125 -16.925781 23.453125 -15.15625 C 23.453125 -13.394531 23.023438 -11.875 22.171875 -10.59375 C 21.328125 -9.3125 20.125 -8.332031 18.5625 -7.65625 L 23.90625 0 Z M 17.890625 -15.15625 C 17.890625 -16.5 17.457031 -17.523438 16.59375 -18.234375 C 15.726562 -18.953125 14.46875 -19.3125 12.8125 -19.3125 L 8.328125 -19.3125 L 8.328125 -11.015625 L 12.8125 -11.015625 C 14.46875 -11.015625 15.726562 -11.375 16.59375 -12.09375 C 17.457031 -12.820312 17.890625 -13.84375 17.890625 -15.15625 Z M 17.890625 -15.15625 "/></g></g></g><g fill="#ffffff" fill-opacity="1"><g transform="translate(77.743364, 226.919237)"><g><path d="M 2.828125 -23.796875 L 8.328125 -23.796875 L 8.328125 0 L 2.828125 0 Z M 2.828125 -23.796875 "/></g></g></g><g fill="#ffffff" fill-opacity="1"><g transform="translate(99.095656, 226.919237)"><g><path d="M 10.640625 0.40625 C 8.753906 0.40625 6.929688 0.148438 5.171875 -0.359375 C 3.421875 -0.867188 2.015625 -1.53125 0.953125 -2.34375 L 2.828125 -6.5 C 3.847656 -5.75 5.054688 -5.144531 6.453125 -4.6875 C 7.859375 -4.238281 9.265625 -4.015625 10.671875 -4.015625 C 12.234375 -4.015625 13.390625 -4.242188 14.140625 -4.703125 C 14.890625 -5.171875 15.265625 -5.789062 15.265625 -6.5625 C 15.265625 -7.125 15.039062 -7.59375 14.59375 -7.96875 C 14.15625 -8.34375 13.585938 -8.644531 12.890625 -8.875 C 12.203125 -9.101562 11.269531 -9.351562 10.09375 -9.625 C 8.28125 -10.050781 6.796875 -10.476562 5.640625 -10.90625 C 4.484375 -11.34375 3.488281 -12.035156 2.65625 -12.984375 C 1.832031 -13.941406 1.421875 -15.210938 1.421875 -16.796875 C 1.421875 -18.179688 1.796875 -19.429688 2.546875 -20.546875 C 3.296875 -21.671875 4.421875 -22.5625 5.921875 -23.21875 C 7.429688 -23.875 9.273438 -24.203125 11.453125 -24.203125 C 12.972656 -24.203125 14.457031 -24.019531 15.90625 -23.65625 C 17.363281 -23.300781 18.632812 -22.78125 19.71875 -22.09375 L 18.015625 -17.921875 C 15.816406 -19.160156 13.617188 -19.78125 11.421875 -19.78125 C 9.878906 -19.78125 8.738281 -19.53125 8 -19.03125 C 7.269531 -18.539062 6.90625 -17.882812 6.90625 -17.0625 C 6.90625 -16.25 7.328125 -15.644531 8.171875 -15.25 C 9.023438 -14.851562 10.320312 -14.460938 12.0625 -14.078125 C 13.882812 -13.648438 15.375 -13.21875 16.53125 -12.78125 C 17.6875 -12.351562 18.675781 -11.671875 19.5 -10.734375 C 20.320312 -9.804688 20.734375 -8.550781 20.734375 -6.96875 C 20.734375 -5.613281 20.351562 -4.375 19.59375 -3.25 C 18.84375 -2.125 17.707031 -1.234375 16.1875 -0.578125 C 14.664062 0.078125 12.816406 0.40625 10.640625 0.40625 Z M 10.640625 0.40625 "/></g></g></g><g fill="#ffffff" fill-opacity="1"><g transform="translate(130.98633, 226.919237)"><g><path d="M 11.484375 -9.34375 L 8.296875 -6.015625 L 8.296875 0 L 2.828125 0 L 2.828125 -23.796875 L 8.296875 -23.796875 L 8.296875 -12.6875 L 18.84375 -23.796875 L 24.953125 -23.796875 L 15.09375 -13.1875 L 25.53125 0 L 19.109375 0 Z M 11.484375 -9.34375 "/></g></g></g><g fill="#ff6500" fill-opacity="1"><g transform="translate(166.348433, 226.919237)"><g><path d="M 14.21875 0.40625 C 11.789062 0.40625 9.59375 -0.117188 7.625 -1.171875 C 5.664062 -2.222656 4.125 -3.679688 3 -5.546875 C 1.882812 -7.421875 1.328125 -9.539062 1.328125 -11.90625 C 1.328125 -14.257812 1.882812 -16.367188 3 -18.234375 C 4.125 -20.109375 5.664062 -21.570312 7.625 -22.625 C 9.59375 -23.675781 11.800781 -24.203125 14.25 -24.203125 C 16.3125 -24.203125 18.175781 -23.835938 19.84375 -23.109375 C 21.507812 -22.390625 22.90625 -21.347656 24.03125 -19.984375 L 20.5 -16.734375 C 18.894531 -18.585938 16.898438 -19.515625 14.515625 -19.515625 C 13.046875 -19.515625 11.734375 -19.191406 10.578125 -18.546875 C 9.421875 -17.898438 8.519531 -17 7.875 -15.84375 C 7.226562 -14.6875 6.90625 -13.375 6.90625 -11.90625 C 6.90625 -10.425781 7.226562 -9.109375 7.875 -7.953125 C 8.519531 -6.796875 9.421875 -5.894531 10.578125 -5.25 C 11.734375 -4.601562 13.046875 -4.28125 14.515625 -4.28125 C 16.898438 -4.28125 18.894531 -5.222656 20.5 -7.109375 L 24.03125 -3.84375 C 22.90625 -2.457031 21.503906 -1.398438 19.828125 -0.671875 C 18.148438 0.046875 16.28125 0.40625 14.21875 0.40625 Z M 14.21875 0.40625 "/></g></g></g><g fill="#ff6500" fill-opacity="1"><g transform="translate(201.468619, 226.919237)"><g><path d="M 24.65625 -23.796875 L 24.65625 0 L 19.140625 0 L 19.140625 -9.765625 L 8.328125 -9.765625 L 8.328125 0 L 2.828125 0 L 2.828125 -23.796875 L 8.328125 -23.796875 L 8.328125 -14.421875 L 19.140625 -14.421875 L 19.140625 -23.796875 Z M 24.65625 -23.796875 "/></g></g></g><g fill="#ff6500" fill-opacity="1"><g transform="translate(239.138408, 226.919237)"><g><path d="M 21.25 -4.421875 L 21.25 0 L 2.828125 0 L 2.828125 -23.796875 L 20.8125 -23.796875 L 20.8125 -19.375 L 8.296875 -19.375 L 8.296875 -14.21875 L 19.34375 -14.21875 L 19.34375 -9.921875 L 8.296875 -9.921875 L 8.296875 -4.421875 Z M 21.25 -4.421875 "/></g></g></g><g fill="#ff6500" fill-opacity="1"><g transform="translate(272.15092, 226.919237)"><g><path d="M 14.21875 0.40625 C 11.789062 0.40625 9.59375 -0.117188 7.625 -1.171875 C 5.664062 -2.222656 4.125 -3.679688 3 -5.546875 C 1.882812 -7.421875 1.328125 -9.539062 1.328125 -11.90625 C 1.328125 -14.257812 1.882812 -16.367188 3 -18.234375 C 4.125 -20.109375 5.664062 -21.570312 7.625 -22.625 C 9.59375 -23.675781 11.800781 -24.203125 14.25 -24.203125 C 16.3125 -24.203125 18.175781 -23.835938 19.84375 -23.109375 C 21.507812 -22.390625 22.90625 -21.347656 24.03125 -19.984375 L 20.5 -16.734375 C 18.894531 -18.585938 16.898438 -19.515625 14.515625 -19.515625 C 13.046875 -19.515625 11.734375 -19.191406 10.578125 -18.546875 C 9.421875 -17.898438 8.519531 -17 7.875 -15.84375 C 7.226562 -14.6875 6.90625 -13.375 6.90625 -11.90625 C 6.90625 -10.425781 7.226562 -9.109375 7.875 -7.953125 C 8.519531 -6.796875 9.421875 -5.894531 10.578125 -5.25 C 11.734375 -4.601562 13.046875 -4.28125 14.515625 -4.28125 C 16.898438 -4.28125 18.894531 -5.222656 20.5 -7.109375 L 24.03125 -3.84375 C 22.90625 -2.457031 21.503906 -1.398438 19.828125 -0.671875 C 18.148438 0.046875 16.28125 0.40625 14.21875 0.40625 Z M 14.21875 0.40625 "/></g></g></g><g fill="#ff6500" fill-opacity="1"><g transform="translate(307.271106, 226.919237)"><g><path d="M 11.484375 -9.34375 L 8.296875 -6.015625 L 8.296875 0 L 2.828125 0 L 2.828125 -23.796875 L 8.296875 -23.796875 L 8.296875 -12.6875 L 18.84375 -23.796875 L 24.953125 -23.796875 L 15.09375 -13.1875 L 25.53125 0 L 19.109375 0 Z M 11.484375 -9.34375 "/></g></g></g><g fill="#ffffff" fill-opacity="1"><g transform="translate(131.918782, 252.89216)"><g><path d="M 4.78125 0.09375 C 3.976562 0.09375 3.253906 -0.0820312 2.609375 -0.4375 C 1.972656 -0.789062 1.46875 -1.28125 1.09375 -1.90625 C 0.726562 -2.53125 0.546875 -3.234375 0.546875 -4.015625 C 0.546875 -4.785156 0.726562 -5.484375 1.09375 -6.109375 C 1.46875 -6.734375 1.976562 -7.222656 2.625 -7.578125 C 3.269531 -7.929688 3.992188 -8.109375 4.796875 -8.109375 C 5.421875 -8.109375 5.992188 -8.003906 6.515625 -7.796875 C 7.035156 -7.585938 7.476562 -7.273438 7.84375 -6.859375 L 7.09375 -6.140625 C 6.5 -6.773438 5.75 -7.09375 4.84375 -7.09375 C 4.25 -7.09375 3.710938 -6.957031 3.234375 -6.6875 C 2.753906 -6.414062 2.375 -6.046875 2.09375 -5.578125 C 1.820312 -5.109375 1.6875 -4.585938 1.6875 -4.015625 C 1.6875 -3.429688 1.820312 -2.90625 2.09375 -2.4375 C 2.375 -1.96875 2.753906 -1.597656 3.234375 -1.328125 C 3.710938 -1.054688 4.25 -0.921875 4.84375 -0.921875 C 5.738281 -0.921875 6.488281 -1.242188 7.09375 -1.890625 L 7.84375 -1.171875 C 7.476562 -0.753906 7.035156 -0.4375 6.515625 -0.21875 C 5.992188 -0.0078125 5.414062 0.09375 4.78125 0.09375 Z M 4.78125 0.09375 "/></g></g></g><g fill="#ffffff" fill-opacity="1"><g transform="translate(149.350174, 252.89216)"><g><path d="M 8.09375 -8.015625 L 8.09375 0 L 6.953125 0 L 6.953125 -3.578125 L 2.34375 -3.578125 L 2.34375 0 L 1.203125 0 L 1.203125 -8.015625 L 2.34375 -8.015625 L 2.34375 -4.5625 L 6.953125 -4.5625 L 6.953125 -8.015625 Z M 8.09375 -8.015625 "/></g></g></g><g fill="#ffffff" fill-opacity="1"><g transform="translate(167.799377, 252.89216)"><g><path d="M 1.203125 -8.015625 L 2.34375 -8.015625 L 2.34375 0 L 1.203125 0 Z M 1.203125 -8.015625 "/></g></g></g><g fill="#ffffff" fill-opacity="1"><g transform="translate(180.507639, 252.89216)"><g><path d="M 4.78125 0.09375 C 3.976562 0.09375 3.253906 -0.0820312 2.609375 -0.4375 C 1.972656 -0.789062 1.46875 -1.28125 1.09375 -1.90625 C 0.726562 -2.53125 0.546875 -3.234375 0.546875 -4.015625 C 0.546875 -4.785156 0.726562 -5.484375 1.09375 -6.109375 C 1.46875 -6.734375 1.976562 -7.222656 2.625 -7.578125 C 3.269531 -7.929688 3.992188 -8.109375 4.796875 -8.109375 C 5.421875 -8.109375 5.992188 -8.003906 6.515625 -7.796875 C 7.035156 -7.585938 7.476562 -7.273438 7.84375 -6.859375 L 7.09375 -6.140625 C 6.5 -6.773438 5.75 -7.09375 4.84375 -7.09375 C 4.25 -7.09375 3.710938 -6.957031 3.234375 -6.6875 C 2.753906 -6.414062 2.375 -6.046875 2.09375 -5.578125 C 1.820312 -5.109375 1.6875 -4.585938 1.6875 -4.015625 C 1.6875 -3.429688 1.820312 -2.90625 2.09375 -2.4375 C 2.375 -1.96875 2.753906 -1.597656 3.234375 -1.328125 C 3.710938 -1.054688 4.25 -0.921875 4.84375 -0.921875 C 5.738281 -0.921875 6.488281 -1.242188 7.09375 -1.890625 L 7.84375 -1.171875 C 7.476562 -0.753906 7.035156 -0.4375 6.515625 -0.21875 C 5.992188 -0.0078125 5.414062 0.09375 4.78125 0.09375 Z M 4.78125 0.09375 "/></g></g></g><g fill="#ffffff" fill-opacity="1"><g transform="translate(197.939033, 252.89216)"><g><path d="M 6.3125 -2 L 2.046875 -2 L 1.171875 0 L -0.015625 0 L 3.625 -8.015625 L 4.75 -8.015625 L 8.390625 0 L 7.1875 0 Z M 5.90625 -2.921875 L 4.1875 -6.84375 L 2.453125 -2.921875 Z M 5.90625 -2.921875 "/></g></g></g><g fill="#ffffff" fill-opacity="1"><g transform="translate(215.473348, 252.89216)"><g><path d="M 6.75 -4.046875 L 7.859375 -4.046875 L 7.859375 -0.921875 C 7.460938 -0.597656 7 -0.347656 6.46875 -0.171875 C 5.945312 0.00390625 5.398438 0.09375 4.828125 0.09375 C 4.015625 0.09375 3.28125 -0.0820312 2.625 -0.4375 C 1.976562 -0.789062 1.46875 -1.28125 1.09375 -1.90625 C 0.726562 -2.53125 0.546875 -3.234375 0.546875 -4.015625 C 0.546875 -4.785156 0.726562 -5.484375 1.09375 -6.109375 C 1.46875 -6.742188 1.984375 -7.234375 2.640625 -7.578125 C 3.296875 -7.929688 4.03125 -8.109375 4.84375 -8.109375 C 5.488281 -8.109375 6.070312 -8.003906 6.59375 -7.796875 C 7.113281 -7.585938 7.554688 -7.28125 7.921875 -6.875 L 7.21875 -6.15625 C 6.570312 -6.78125 5.796875 -7.09375 4.890625 -7.09375 C 4.273438 -7.09375 3.722656 -6.957031 3.234375 -6.6875 C 2.753906 -6.425781 2.375 -6.0625 2.09375 -5.59375 C 1.820312 -5.125 1.6875 -4.597656 1.6875 -4.015625 C 1.6875 -3.429688 1.820312 -2.90625 2.09375 -2.4375 C 2.375 -1.96875 2.753906 -1.597656 3.234375 -1.328125 C 3.722656 -1.054688 4.269531 -0.921875 4.875 -0.921875 C 5.59375 -0.921875 6.21875 -1.09375 6.75 -1.4375 Z M 6.75 -4.046875 "/></g></g></g><g fill="#ffffff" fill-opacity="1"><g transform="translate(233.465115, 252.89216)"><g><path d="M 4.828125 0.09375 C 4.015625 0.09375 3.28125 -0.0820312 2.625 -0.4375 C 1.976562 -0.789062 1.46875 -1.28125 1.09375 -1.90625 C 0.726562 -2.539062 0.546875 -3.242188 0.546875 -4.015625 C 0.546875 -4.785156 0.726562 -5.484375 1.09375 -6.109375 C 1.46875 -6.734375 1.976562 -7.222656 2.625 -7.578125 C 3.28125 -7.929688 4.015625 -8.109375 4.828125 -8.109375 C 5.628906 -8.109375 6.351562 -7.929688 7 -7.578125 C 7.644531 -7.222656 8.148438 -6.734375 8.515625 -6.109375 C 8.890625 -5.484375 9.078125 -4.785156 9.078125 -4.015625 C 9.078125 -3.234375 8.890625 -2.53125 8.515625 -1.90625 C 8.148438 -1.28125 7.644531 -0.789062 7 -0.4375 C 6.351562 -0.0820312 5.628906 0.09375 4.828125 0.09375 Z M 4.828125 -0.921875 C 5.410156 -0.921875 5.9375 -1.054688 6.40625 -1.328125 C 6.875 -1.597656 7.242188 -1.96875 7.515625 -2.4375 C 7.785156 -2.90625 7.921875 -3.429688 7.921875 -4.015625 C 7.921875 -4.585938 7.785156 -5.109375 7.515625 -5.578125 C 7.242188 -6.046875 6.875 -6.414062 6.40625 -6.6875 C 5.9375 -6.957031 5.410156 -7.09375 4.828125 -7.09375 C 4.234375 -7.09375 3.695312 -6.957031 3.21875 -6.6875 C 2.75 -6.414062 2.375 -6.046875 2.09375 -5.578125 C 1.820312 -5.109375 1.6875 -4.585938 1.6875 -4.015625 C 1.6875 -3.429688 1.820312 -2.90625 2.09375 -2.4375 C 2.375 -1.96875 2.75 -1.597656 3.21875 -1.328125 C 3.695312 -1.054688 4.234375 -0.921875 4.828125 -0.921875 Z M 4.828125 -0.921875 "/></g></g></g></svg>