<svg xmlns="http://www.w3.org/2000/svg" xmlns:xlink="http://www.w3.org/1999/xlink" width="125" zoomAndPan="magnify" viewBox="0 0 93.75 44.999999" height="60" preserveAspectRatio="xMidYMid meet" version="1.0"><defs><g/><clipPath id="902e74dd2c"><path d="M 26 6.984375 L 63.902344 6.984375 L 63.902344 26.429688 L 26 26.429688 Z M 26 6.984375 " clip-rule="nonzero"/></clipPath></defs><g clip-path="url(#902e74dd2c)"><path fill="#ffffff" d="M 27.523438 25.316406 L 26.71875 25.316406 C 26.507812 25.316406 26.339844 25.484375 26.339844 25.691406 C 26.339844 25.898438 26.507812 26.066406 26.71875 26.066406 L 52.152344 26.066406 C 52.359375 26.066406 52.527344 25.898438 52.527344 25.691406 C 52.527344 25.484375 52.359375 25.316406 52.152344 25.316406 L 33.867188 25.316406 C 34.917969 24.957031 35.988281 24.496094 37.039062 24.011719 C 39.9375 22.675781 42.726562 21.132812 44.765625 21.125 C 46.804688 21.132812 49.589844 22.675781 52.488281 24.011719 C 53.542969 24.496094 54.609375 24.957031 55.664062 25.316406 L 53.261719 25.316406 C 53.054688 25.316406 52.886719 25.484375 52.886719 25.691406 C 52.886719 25.898438 53.054688 26.066406 53.261719 26.066406 L 62.8125 26.066406 C 63.019531 26.066406 63.1875 25.898438 63.1875 25.691406 C 63.1875 25.484375 63.019531 25.316406 62.8125 25.316406 L 62.003906 25.316406 C 62.035156 25.277344 62.066406 25.238281 62.097656 25.199219 C 62.386719 24.8125 62.601562 24.269531 62.777344 23.671875 C 63.773438 20.355469 62.902344 17.007812 60.75 14.183594 C 57.570312 10.019531 51.582031 7 44.765625 6.984375 C 44.765625 6.984375 44.765625 6.984375 44.761719 6.984375 C 37.949219 7 31.957031 10.019531 28.78125 14.183594 C 26.625 17.007812 25.757812 20.355469 26.75 23.671875 C 26.925781 24.269531 27.140625 24.8125 27.429688 25.199219 C 27.460938 25.238281 27.492188 25.277344 27.523438 25.316406 Z M 59.691406 25.316406 L 59.195312 25.316406 C 57.191406 25.242188 54.972656 24.328125 52.804688 23.328125 C 49.792969 21.941406 46.882812 20.382812 44.765625 20.375 C 44.765625 20.375 44.765625 20.375 44.761719 20.375 C 42.644531 20.382812 39.734375 21.941406 36.726562 23.328125 C 34.558594 24.328125 32.335938 25.242188 30.335938 25.316406 L 29.839844 25.316406 C 29.371094 25.296875 28.921875 25.226562 28.484375 25.097656 C 28.25 25.027344 28.074219 24.835938 27.925781 24.585938 C 27.738281 24.277344 27.597656 23.882812 27.46875 23.457031 C 26.546875 20.375 27.375 17.265625 29.378906 14.640625 C 32.433594 10.632812 38.207031 7.753906 44.765625 7.738281 C 51.320312 7.753906 57.09375 10.632812 60.152344 14.640625 C 62.152344 17.265625 62.984375 20.375 62.058594 23.457031 C 61.933594 23.882812 61.789062 24.277344 61.601562 24.585938 C 61.453125 24.835938 61.28125 25.027344 61.042969 25.097656 C 60.609375 25.226562 60.15625 25.296875 59.691406 25.316406 Z M 61.207031 19.117188 C 61.050781 18.394531 60.800781 17.683594 60.472656 16.996094 C 60.378906 16.808594 60.15625 16.730469 59.96875 16.820312 C 59.78125 16.910156 59.703125 17.136719 59.792969 17.324219 C 60.097656 17.957031 60.328125 18.609375 60.46875 19.277344 C 60.515625 19.480469 60.714844 19.609375 60.917969 19.566406 C 61.121094 19.519531 61.25 19.320312 61.207031 19.117188 Z M 59.304688 15.101562 C 57.90625 13.253906 55.867188 11.664062 53.417969 10.546875 C 53.230469 10.460938 53.003906 10.542969 52.917969 10.734375 C 52.832031 10.921875 52.917969 11.144531 53.105469 11.230469 C 55.433594 12.292969 57.375 13.800781 58.707031 15.558594 C 58.832031 15.722656 59.066406 15.753906 59.234375 15.628906 C 59.398438 15.503906 59.429688 15.269531 59.304688 15.101562 Z M 59.304688 15.101562 " fill-opacity="1" fill-rule="evenodd"/></g><g fill="#ffffff" fill-opacity="1"><g transform="translate(8.516954, 34.609933)"><g><path d="M 4.75 0 L 3.53125 -1.75 L 2.203125 -1.75 L 2.203125 0 L 0.75 0 L 0.75 -6.28125 L 3.46875 -6.28125 C 4.019531 -6.28125 4.5 -6.1875 4.90625 -6 C 5.320312 -5.8125 5.640625 -5.546875 5.859375 -5.203125 C 6.078125 -4.867188 6.1875 -4.46875 6.1875 -4 C 6.1875 -3.53125 6.070312 -3.125 5.84375 -2.78125 C 5.625 -2.445312 5.304688 -2.191406 4.890625 -2.015625 L 6.3125 0 Z M 4.71875 -4 C 4.71875 -4.351562 4.601562 -4.625 4.375 -4.8125 C 4.144531 -5 3.8125 -5.09375 3.375 -5.09375 L 2.203125 -5.09375 L 2.203125 -2.90625 L 3.375 -2.90625 C 3.8125 -2.90625 4.144531 -3 4.375 -3.1875 C 4.601562 -3.382812 4.71875 -3.65625 4.71875 -4 Z M 4.71875 -4 "/></g></g></g><g fill="#ffffff" fill-opacity="1"><g transform="translate(17.798851, 34.609933)"><g><path d="M 0.75 -6.28125 L 2.203125 -6.28125 L 2.203125 0 L 0.75 0 Z M 0.75 -6.28125 "/></g></g></g><g fill="#ffffff" fill-opacity="1"><g transform="translate(23.431135, 34.609933)"><g><path d="M 2.8125 0.109375 C 2.3125 0.109375 1.828125 0.0390625 1.359375 -0.09375 C 0.898438 -0.226562 0.53125 -0.40625 0.25 -0.625 L 0.75 -1.71875 C 1.007812 -1.519531 1.328125 -1.359375 1.703125 -1.234375 C 2.078125 -1.117188 2.445312 -1.0625 2.8125 -1.0625 C 3.226562 -1.0625 3.535156 -1.117188 3.734375 -1.234375 C 3.929688 -1.359375 4.03125 -1.523438 4.03125 -1.734375 C 4.03125 -1.878906 3.96875 -2 3.84375 -2.09375 C 3.726562 -2.195312 3.578125 -2.28125 3.390625 -2.34375 C 3.210938 -2.40625 2.96875 -2.46875 2.65625 -2.53125 C 2.1875 -2.644531 1.796875 -2.757812 1.484375 -2.875 C 1.179688 -2.988281 0.921875 -3.171875 0.703125 -3.421875 C 0.484375 -3.671875 0.375 -4.007812 0.375 -4.4375 C 0.375 -4.800781 0.472656 -5.128906 0.671875 -5.421875 C 0.867188 -5.710938 1.164062 -5.945312 1.5625 -6.125 C 1.957031 -6.300781 2.441406 -6.390625 3.015625 -6.390625 C 3.421875 -6.390625 3.8125 -6.335938 4.1875 -6.234375 C 4.570312 -6.140625 4.910156 -6.003906 5.203125 -5.828125 L 4.75 -4.734375 C 4.175781 -5.054688 3.597656 -5.21875 3.015625 -5.21875 C 2.609375 -5.21875 2.304688 -5.148438 2.109375 -5.015625 C 1.921875 -4.890625 1.828125 -4.71875 1.828125 -4.5 C 1.828125 -4.28125 1.9375 -4.117188 2.15625 -4.015625 C 2.382812 -3.910156 2.726562 -3.8125 3.1875 -3.71875 C 3.664062 -3.601562 4.054688 -3.488281 4.359375 -3.375 C 4.660156 -3.257812 4.921875 -3.078125 5.140625 -2.828125 C 5.359375 -2.585938 5.46875 -2.257812 5.46875 -1.84375 C 5.46875 -1.476562 5.367188 -1.144531 5.171875 -0.84375 C 4.972656 -0.550781 4.671875 -0.316406 4.265625 -0.140625 C 3.867188 0.0234375 3.382812 0.109375 2.8125 0.109375 Z M 2.8125 0.109375 "/></g></g></g><g fill="#ffffff" fill-opacity="1"><g transform="translate(31.84322, 34.609933)"><g><path d="M 3.03125 -2.46875 L 2.1875 -1.59375 L 2.1875 0 L 0.75 0 L 0.75 -6.28125 L 2.1875 -6.28125 L 2.1875 -3.34375 L 4.96875 -6.28125 L 6.578125 -6.28125 L 3.984375 -3.484375 L 6.734375 0 L 5.046875 0 Z M 3.03125 -2.46875 "/></g></g></g><g fill="#ff6500" fill-opacity="1"><g transform="translate(41.170995, 34.609933)"><g><path d="M 3.75 0.109375 C 3.113281 0.109375 2.535156 -0.0234375 2.015625 -0.296875 C 1.492188 -0.578125 1.082031 -0.960938 0.78125 -1.453125 C 0.488281 -1.953125 0.34375 -2.515625 0.34375 -3.140625 C 0.34375 -3.765625 0.488281 -4.320312 0.78125 -4.8125 C 1.082031 -5.300781 1.492188 -5.6875 2.015625 -5.96875 C 2.535156 -6.25 3.117188 -6.390625 3.765625 -6.390625 C 4.304688 -6.390625 4.796875 -6.289062 5.234375 -6.09375 C 5.671875 -5.90625 6.039062 -5.632812 6.34375 -5.28125 L 5.40625 -4.40625 C 4.976562 -4.894531 4.453125 -5.140625 3.828125 -5.140625 C 3.441406 -5.140625 3.09375 -5.054688 2.78125 -4.890625 C 2.476562 -4.722656 2.242188 -4.484375 2.078125 -4.171875 C 1.910156 -3.867188 1.828125 -3.523438 1.828125 -3.140625 C 1.828125 -2.753906 1.910156 -2.40625 2.078125 -2.09375 C 2.242188 -1.789062 2.476562 -1.550781 2.78125 -1.375 C 3.09375 -1.207031 3.441406 -1.125 3.828125 -1.125 C 4.453125 -1.125 4.976562 -1.375 5.40625 -1.875 L 6.34375 -1.015625 C 6.039062 -0.648438 5.664062 -0.367188 5.21875 -0.171875 C 4.78125 0.015625 4.289062 0.109375 3.75 0.109375 Z M 3.75 0.109375 "/></g></g></g><g fill="#ff6500" fill-opacity="1"><g transform="translate(50.434957, 34.609933)"><g><path d="M 6.5 -6.28125 L 6.5 0 L 5.046875 0 L 5.046875 -2.578125 L 2.203125 -2.578125 L 2.203125 0 L 0.75 0 L 0.75 -6.28125 L 2.203125 -6.28125 L 2.203125 -3.796875 L 5.046875 -3.796875 L 5.046875 -6.28125 Z M 6.5 -6.28125 "/></g></g></g><g fill="#ff6500" fill-opacity="1"><g transform="translate(60.371451, 34.609933)"><g><path d="M 5.609375 -1.171875 L 5.609375 0 L 0.75 0 L 0.75 -6.28125 L 5.484375 -6.28125 L 5.484375 -5.109375 L 2.1875 -5.109375 L 2.1875 -3.75 L 5.109375 -3.75 L 5.109375 -2.625 L 2.1875 -2.625 L 2.1875 -1.171875 Z M 5.609375 -1.171875 "/></g></g></g><g fill="#ff6500" fill-opacity="1"><g transform="translate(69.079453, 34.609933)"><g><path d="M 3.75 0.109375 C 3.113281 0.109375 2.535156 -0.0234375 2.015625 -0.296875 C 1.492188 -0.578125 1.082031 -0.960938 0.78125 -1.453125 C 0.488281 -1.953125 0.34375 -2.515625 0.34375 -3.140625 C 0.34375 -3.765625 0.488281 -4.320312 0.78125 -4.8125 C 1.082031 -5.300781 1.492188 -5.6875 2.015625 -5.96875 C 2.535156 -6.25 3.117188 -6.390625 3.765625 -6.390625 C 4.304688 -6.390625 4.796875 -6.289062 5.234375 -6.09375 C 5.671875 -5.90625 6.039062 -5.632812 6.34375 -5.28125 L 5.40625 -4.40625 C 4.976562 -4.894531 4.453125 -5.140625 3.828125 -5.140625 C 3.441406 -5.140625 3.09375 -5.054688 2.78125 -4.890625 C 2.476562 -4.722656 2.242188 -4.484375 2.078125 -4.171875 C 1.910156 -3.867188 1.828125 -3.523438 1.828125 -3.140625 C 1.828125 -2.753906 1.910156 -2.40625 2.078125 -2.09375 C 2.242188 -1.789062 2.476562 -1.550781 2.78125 -1.375 C 3.09375 -1.207031 3.441406 -1.125 3.828125 -1.125 C 4.453125 -1.125 4.976562 -1.375 5.40625 -1.875 L 6.34375 -1.015625 C 6.039062 -0.648438 5.664062 -0.367188 5.21875 -0.171875 C 4.78125 0.015625 4.289062 0.109375 3.75 0.109375 Z M 3.75 0.109375 "/></g></g></g><g fill="#ff6500" fill-opacity="1"><g transform="translate(78.343416, 34.609933)"><g><path d="M 3.03125 -2.46875 L 2.1875 -1.59375 L 2.1875 0 L 0.75 0 L 0.75 -6.28125 L 2.1875 -6.28125 L 2.1875 -3.34375 L 4.96875 -6.28125 L 6.578125 -6.28125 L 3.984375 -3.484375 L 6.734375 0 L 5.046875 0 Z M 3.03125 -2.46875 "/></g></g></g><g fill="#ffffff" fill-opacity="1"><g transform="translate(29.152312, 39.932352)"><g><path d="M 1.515625 0.03125 C 1.265625 0.03125 1.035156 -0.0234375 0.828125 -0.140625 C 0.617188 -0.253906 0.457031 -0.410156 0.34375 -0.609375 C 0.226562 -0.804688 0.171875 -1.023438 0.171875 -1.265625 C 0.171875 -1.515625 0.226562 -1.738281 0.34375 -1.9375 C 0.457031 -2.132812 0.617188 -2.285156 0.828125 -2.390625 C 1.035156 -2.503906 1.265625 -2.5625 1.515625 -2.5625 C 1.710938 -2.5625 1.894531 -2.523438 2.0625 -2.453125 C 2.226562 -2.390625 2.367188 -2.296875 2.484375 -2.171875 L 2.25 -1.9375 C 2.0625 -2.144531 1.820312 -2.25 1.53125 -2.25 C 1.34375 -2.25 1.171875 -2.203125 1.015625 -2.109375 C 0.867188 -2.023438 0.75 -1.910156 0.65625 -1.765625 C 0.570312 -1.617188 0.53125 -1.453125 0.53125 -1.265625 C 0.53125 -1.085938 0.570312 -0.921875 0.65625 -0.765625 C 0.75 -0.617188 0.867188 -0.503906 1.015625 -0.421875 C 1.171875 -0.335938 1.34375 -0.296875 1.53125 -0.296875 C 1.8125 -0.296875 2.050781 -0.394531 2.25 -0.59375 L 2.484375 -0.375 C 2.367188 -0.238281 2.226562 -0.132812 2.0625 -0.0625 C 1.894531 0 1.710938 0.03125 1.515625 0.03125 Z M 1.515625 0.03125 "/></g></g></g><g fill="#ffffff" fill-opacity="1"><g transform="translate(34.671406, 39.932352)"><g><path d="M 2.5625 -2.53125 L 2.5625 0 L 2.203125 0 L 2.203125 -1.125 L 0.75 -1.125 L 0.75 0 L 0.375 0 L 0.375 -2.53125 L 0.75 -2.53125 L 0.75 -1.453125 L 2.203125 -1.453125 L 2.203125 -2.53125 Z M 2.5625 -2.53125 "/></g></g></g><g fill="#ffffff" fill-opacity="1"><g transform="translate(40.512757, 39.932352)"><g><path d="M 0.375 -2.53125 L 0.75 -2.53125 L 0.75 0 L 0.375 0 Z M 0.375 -2.53125 "/></g></g></g><g fill="#ffffff" fill-opacity="1"><g transform="translate(44.536422, 39.932352)"><g><path d="M 1.515625 0.03125 C 1.265625 0.03125 1.035156 -0.0234375 0.828125 -0.140625 C 0.617188 -0.253906 0.457031 -0.410156 0.34375 -0.609375 C 0.226562 -0.804688 0.171875 -1.023438 0.171875 -1.265625 C 0.171875 -1.515625 0.226562 -1.738281 0.34375 -1.9375 C 0.457031 -2.132812 0.617188 -2.285156 0.828125 -2.390625 C 1.035156 -2.503906 1.265625 -2.5625 1.515625 -2.5625 C 1.710938 -2.5625 1.894531 -2.523438 2.0625 -2.453125 C 2.226562 -2.390625 2.367188 -2.296875 2.484375 -2.171875 L 2.25 -1.9375 C 2.0625 -2.144531 1.820312 -2.25 1.53125 -2.25 C 1.34375 -2.25 1.171875 -2.203125 1.015625 -2.109375 C 0.867188 -2.023438 0.75 -1.910156 0.65625 -1.765625 C 0.570312 -1.617188 0.53125 -1.453125 0.53125 -1.265625 C 0.53125 -1.085938 0.570312 -0.921875 0.65625 -0.765625 C 0.75 -0.617188 0.867188 -0.503906 1.015625 -0.421875 C 1.171875 -0.335938 1.34375 -0.296875 1.53125 -0.296875 C 1.8125 -0.296875 2.050781 -0.394531 2.25 -0.59375 L 2.484375 -0.375 C 2.367188 -0.238281 2.226562 -0.132812 2.0625 -0.0625 C 1.894531 0 1.710938 0.03125 1.515625 0.03125 Z M 1.515625 0.03125 "/></g></g></g><g fill="#ffffff" fill-opacity="1"><g transform="translate(50.055516, 39.932352)"><g><path d="M 2 -0.640625 L 0.65625 -0.640625 L 0.375 0 L 0 0 L 1.140625 -2.53125 L 1.5 -2.53125 L 2.65625 0 L 2.28125 0 Z M 1.875 -0.921875 L 1.328125 -2.171875 L 0.78125 -0.921875 Z M 1.875 -0.921875 "/></g></g></g><g fill="#ffffff" fill-opacity="1"><g transform="translate(55.607197, 39.932352)"><g><path d="M 2.140625 -1.28125 L 2.484375 -1.28125 L 2.484375 -0.296875 C 2.359375 -0.191406 2.210938 -0.109375 2.046875 -0.046875 C 1.878906 0.00390625 1.707031 0.03125 1.53125 0.03125 C 1.269531 0.03125 1.035156 -0.0234375 0.828125 -0.140625 C 0.628906 -0.253906 0.46875 -0.410156 0.34375 -0.609375 C 0.226562 -0.804688 0.171875 -1.023438 0.171875 -1.265625 C 0.171875 -1.515625 0.226562 -1.738281 0.34375 -1.9375 C 0.46875 -2.132812 0.628906 -2.285156 0.828125 -2.390625 C 1.035156 -2.503906 1.269531 -2.5625 1.53125 -2.5625 C 1.738281 -2.5625 1.921875 -2.523438 2.078125 -2.453125 C 2.242188 -2.390625 2.390625 -2.296875 2.515625 -2.171875 L 2.28125 -1.953125 C 2.082031 -2.148438 1.835938 -2.25 1.546875 -2.25 C 1.359375 -2.25 1.1875 -2.207031 1.03125 -2.125 C 0.875 -2.039062 0.75 -1.921875 0.65625 -1.765625 C 0.570312 -1.617188 0.53125 -1.453125 0.53125 -1.265625 C 0.53125 -1.085938 0.570312 -0.921875 0.65625 -0.765625 C 0.75 -0.617188 0.875 -0.503906 1.03125 -0.421875 C 1.1875 -0.335938 1.359375 -0.296875 1.546875 -0.296875 C 1.773438 -0.296875 1.972656 -0.347656 2.140625 -0.453125 Z M 2.140625 -1.28125 "/></g></g></g><g fill="#ffffff" fill-opacity="1"><g transform="translate(61.303716, 39.932352)"><g><path d="M 1.53125 0.03125 C 1.269531 0.03125 1.035156 -0.0234375 0.828125 -0.140625 C 0.628906 -0.253906 0.46875 -0.410156 0.34375 -0.609375 C 0.226562 -0.804688 0.171875 -1.023438 0.171875 -1.265625 C 0.171875 -1.515625 0.226562 -1.738281 0.34375 -1.9375 C 0.46875 -2.132812 0.628906 -2.285156 0.828125 -2.390625 C 1.035156 -2.503906 1.269531 -2.5625 1.53125 -2.5625 C 1.78125 -2.5625 2.003906 -2.503906 2.203125 -2.390625 C 2.410156 -2.285156 2.570312 -2.132812 2.6875 -1.9375 C 2.8125 -1.738281 2.875 -1.515625 2.875 -1.265625 C 2.875 -1.023438 2.8125 -0.804688 2.6875 -0.609375 C 2.570312 -0.410156 2.410156 -0.253906 2.203125 -0.140625 C 2.003906 -0.0234375 1.78125 0.03125 1.53125 0.03125 Z M 1.53125 -0.296875 C 1.71875 -0.296875 1.882812 -0.335938 2.03125 -0.421875 C 2.175781 -0.503906 2.289062 -0.617188 2.375 -0.765625 C 2.46875 -0.921875 2.515625 -1.085938 2.515625 -1.265625 C 2.515625 -1.453125 2.46875 -1.617188 2.375 -1.765625 C 2.289062 -1.910156 2.175781 -2.023438 2.03125 -2.109375 C 1.882812 -2.203125 1.71875 -2.25 1.53125 -2.25 C 1.34375 -2.25 1.171875 -2.203125 1.015625 -2.109375 C 0.867188 -2.023438 0.75 -1.910156 0.65625 -1.765625 C 0.570312 -1.617188 0.53125 -1.453125 0.53125 -1.265625 C 0.53125 -1.085938 0.570312 -0.921875 0.65625 -0.765625 C 0.75 -0.617188 0.867188 -0.503906 1.015625 -0.421875 C 1.171875 -0.335938 1.34375 -0.296875 1.53125 -0.296875 Z M 1.53125 -0.296875 "/></g></g></g></svg>