<svg xmlns="http://www.w3.org/2000/svg" xmlns:xlink="http://www.w3.org/1999/xlink" width="500" zoomAndPan="magnify" viewBox="0 0 375 374.999991" height="500" preserveAspectRatio="xMidYMid meet" version="1.0"><defs><clipPath id="b920c93bfa"><path d="M 40.195312 103 L 334.945312 103 L 334.945312 225 L 40.195312 225 Z M 40.195312 103 " clip-rule="nonzero"/></clipPath><clipPath id="d88aef76b4"><path d="M 54 175 L 321 175 L 321 343.957031 L 54 343.957031 Z M 54 175 " clip-rule="nonzero"/></clipPath></defs><path fill="#ffffff" d="M 240.722656 35.90625 C 260.4375 30.980469 280.195312 43.800781 283.726562 63.8125 L 299.527344 153.335938 C 300.199219 157.148438 297.652344 160.785156 293.84375 161.457031 C 290.03125 162.128906 286.394531 159.585938 285.722656 155.773438 L 269.925781 66.25 C 267.804688 54.242188 255.949219 46.550781 244.121094 49.507812 L 195.996094 61.535156 C 190.417969 62.933594 184.582031 62.933594 179 61.535156 L 130.878906 49.507812 C 119.046875 46.550781 107.191406 54.242188 105.074219 66.25 L 89.273438 155.773438 C 88.601562 159.585938 84.96875 162.128906 81.15625 161.457031 C 77.34375 160.785156 74.800781 157.148438 75.472656 153.335938 L 91.269531 63.8125 C 94.800781 43.800781 114.5625 30.980469 134.277344 35.90625 L 182.398438 47.9375 C 185.75 48.777344 189.25 48.777344 192.597656 47.9375 Z M 240.722656 35.90625 " fill-opacity="1" fill-rule="evenodd"/><g clip-path="url(#b920c93bfa)"><path fill="#ffffff" d="M 63.699219 134.539062 C 57.292969 141.257812 54.339844 148.011719 54.339844 154.550781 C 54.339844 167.492188 66.335938 181.542969 91.261719 192.761719 C 115.53125 203.683594 149.550781 210.617188 187.5 210.617188 C 225.449219 210.617188 259.46875 203.683594 283.738281 192.761719 C 308.664062 181.542969 320.660156 167.492188 320.660156 154.550781 C 320.660156 148.011719 317.703125 141.257812 311.300781 134.539062 C 304.863281 127.789062 295.222656 121.402344 282.789062 115.917969 L 288.445312 103.09375 C 301.960938 109.058594 313.347656 116.371094 321.445312 124.867188 C 329.582031 133.402344 334.675781 143.449219 334.675781 154.550781 C 334.675781 176.445312 315.292969 193.929688 289.488281 205.542969 C 263.027344 217.453125 226.960938 224.636719 187.5 224.636719 C 148.035156 224.636719 111.972656 217.453125 85.507812 205.542969 C 59.707031 193.929688 40.324219 176.445312 40.324219 154.550781 C 40.324219 143.449219 45.417969 133.402344 53.550781 124.867188 C 61.652344 116.371094 73.035156 109.058594 86.554688 103.09375 L 92.210938 115.917969 C 79.777344 121.402344 70.136719 127.789062 63.699219 134.539062 Z M 63.699219 134.539062 " fill-opacity="1" fill-rule="evenodd"/></g><g clip-path="url(#d88aef76b4)"><path fill="#ffffff" d="M 61.347656 175.582031 C 65.21875 175.582031 68.355469 178.71875 68.355469 182.589844 C 68.355469 265.253906 122.949219 329.765625 187.5 329.765625 C 252.050781 329.765625 306.640625 265.253906 306.640625 182.589844 C 306.640625 178.71875 309.78125 175.582031 313.648438 175.582031 C 317.519531 175.582031 320.660156 178.71875 320.660156 182.589844 C 320.660156 270.234375 262.289062 343.78125 187.5 343.78125 C 112.707031 343.78125 54.339844 270.234375 54.339844 182.589844 C 54.339844 178.71875 57.476562 175.582031 61.347656 175.582031 Z M 61.347656 175.582031 " fill-opacity="1" fill-rule="evenodd"/></g><path fill="#ffffff" d="M 250.214844 250.457031 C 251.4375 254.128906 249.453125 258.101562 245.78125 259.324219 L 224.757812 266.332031 C 221.085938 267.554688 217.117188 265.570312 215.894531 261.898438 C 214.667969 258.226562 216.652344 254.257812 220.324219 253.035156 L 241.351562 246.027344 C 245.023438 244.800781 248.992188 246.785156 250.214844 250.457031 Z M 250.214844 250.457031 " fill-opacity="1" fill-rule="evenodd"/><path fill="#ffffff" d="M 124.78125 250.457031 C 123.558594 254.128906 125.542969 258.101562 129.214844 259.324219 L 150.242188 266.332031 C 153.914062 267.554688 157.882812 265.570312 159.105469 261.898438 C 160.332031 258.226562 158.34375 254.257812 154.671875 253.035156 L 133.648438 246.027344 C 129.976562 244.800781 126.007812 246.785156 124.78125 250.457031 Z M 124.78125 250.457031 " fill-opacity="1" fill-rule="evenodd"/></svg>