<svg xmlns="http://www.w3.org/2000/svg" xmlns:xlink="http://www.w3.org/1999/xlink" width="150" zoomAndPan="magnify" viewBox="0 0 112.5 112.499997" height="150" preserveAspectRatio="xMidYMid meet" version="1.0"><defs><clipPath id="b712291bcd"><path d="M 23 3.785156 L 89 3.785156 L 89 98 L 23 98 Z M 23 3.785156 " clip-rule="nonzero"/></clipPath><clipPath id="be4a728248"><path d="M 16.054688 87 L 95.949219 87 L 95.949219 108.320312 L 16.054688 108.320312 Z M 16.054688 87 " clip-rule="nonzero"/></clipPath></defs><g clip-path="url(#b712291bcd)"><path fill="#ff6500" d="M 55.996094 51.898438 C 45.988281 51.898438 37.875 43.785156 37.875 33.777344 C 37.875 23.773438 45.988281 15.660156 55.996094 15.660156 C 66.003906 15.660156 74.117188 23.773438 74.117188 33.777344 C 74.117188 43.785156 66.003906 51.898438 55.996094 51.898438 Z M 55.996094 3.769531 C 38.152344 3.769531 23.683594 18.234375 23.683594 36.082031 C 23.683594 53.925781 55.996094 97.769531 55.996094 97.769531 C 55.996094 97.769531 88.308594 53.925781 88.308594 36.082031 C 88.308594 18.234375 73.84375 3.769531 55.996094 3.769531 " fill-opacity="1" fill-rule="nonzero"/></g><g clip-path="url(#be4a728248)"><path fill="#ff6500" d="M 83.410156 89.84375 C 78.945312 88.816406 73.59375 88.070312 67.761719 87.640625 C 67 88.78125 66.269531 89.867188 65.574219 90.886719 C 71.984375 91.269531 77.859375 92.035156 82.652344 93.140625 C 90.761719 95.003906 92.535156 97.070312 92.535156 97.710938 C 92.535156 98.347656 90.761719 100.414062 82.652344 102.28125 C 75.550781 103.914062 66.085938 104.816406 55.996094 104.816406 C 45.90625 104.816406 36.441406 103.914062 29.34375 102.28125 C 21.234375 100.414062 19.457031 98.347656 19.457031 97.710938 C 19.457031 97.070312 21.234375 95.003906 29.34375 93.140625 C 34.175781 92.027344 40.105469 91.253906 46.582031 90.875 C 45.886719 89.855469 45.152344 88.769531 44.390625 87.628906 C 38.496094 88.054688 33.089844 88.804688 28.582031 89.84375 C 20.285156 91.75 16.074219 94.398438 16.074219 97.710938 C 16.074219 101.023438 20.285156 103.667969 28.582031 105.578125 C 35.925781 107.269531 45.660156 108.199219 55.996094 108.199219 C 66.332031 108.199219 76.066406 107.269531 83.410156 105.578125 C 91.710938 103.667969 95.917969 101.023438 95.917969 97.710938 C 95.917969 94.398438 91.710938 91.75 83.410156 89.84375 " fill-opacity="1" fill-rule="nonzero"/></g></svg>