<svg xmlns="http://www.w3.org/2000/svg" xmlns:xlink="http://www.w3.org/1999/xlink" width="500" zoomAndPan="magnify" viewBox="0 0 375 374.999991" height="500" preserveAspectRatio="xMidYMid meet" version="1.0"><defs><clipPath id="bbdefbea9a"><path d="M 16 28 L 359.363281 28 L 359.363281 347 L 16 347 Z M 16 28 " clip-rule="nonzero"/></clipPath></defs><g clip-path="url(#bbdefbea9a)"><path fill="#ffffff" d="M 127.335938 28.070312 L 53.84375 33.894531 C 52.226562 33.925781 50.90625 35.199219 50.804688 36.808594 L 50.804688 64.511719 L 51.6875 64.511719 C 51.113281 66.992188 50.738281 69.542969 50.738281 72.191406 C 50.738281 91.027344 66.148438 106.464844 84.984375 106.464844 C 103.84375 106.464844 119.253906 91.027344 119.253906 72.191406 C 119.253906 69.542969 118.878906 66.992188 118.304688 64.511719 L 134.910156 64.511719 C 136.238281 64.621094 137.519531 63.949219 138.164062 62.785156 C 138.164062 62.785156 138.175781 62.773438 138.175781 62.773438 C 138.554688 61.648438 137.933594 60.433594 136.8125 60.054688 L 116.402344 49.925781 L 130.414062 32.636719 C 131.128906 31.730469 131.179688 30.476562 130.523438 29.53125 C 129.789062 28.523438 128.578125 27.96875 127.335938 28.070312 Z M 311.164062 37.105469 C 300.316406 37.105469 291.308594 41.417969 285.484375 47.972656 C 279.664062 54.523438 276.90625 62.988281 276.90625 71.363281 C 276.90625 79.738281 279.664062 88.203125 285.484375 94.753906 C 291.308594 101.304688 300.316406 105.621094 311.164062 105.621094 C 322.015625 105.621094 331.023438 101.304688 336.847656 94.753906 C 342.667969 88.203125 345.425781 79.738281 345.425781 71.363281 C 345.425781 62.988281 342.667969 54.523438 336.847656 47.972656 C 331.023438 41.417969 322.015625 37.105469 311.164062 37.105469 Z M 311.164062 50.808594 C 318.589844 50.808594 323.285156 53.34375 326.59375 57.070312 C 329.90625 60.796875 331.71875 66.035156 331.71875 71.363281 C 331.71875 76.691406 329.90625 81.929688 326.59375 85.65625 C 323.285156 89.382812 318.589844 91.917969 311.164062 91.917969 C 303.742188 91.917969 299.046875 89.382812 295.734375 85.65625 C 292.425781 81.929688 290.609375 76.691406 290.609375 71.363281 C 290.609375 66.035156 292.425781 60.796875 295.734375 57.070312 C 299.046875 53.34375 303.742188 50.808594 311.164062 50.808594 Z M 65.941406 64.511719 L 104.050781 64.511719 C 104.996094 66.882812 105.550781 69.464844 105.550781 72.191406 C 105.550781 83.628906 96.445312 92.761719 84.984375 92.761719 C 73.5625 92.761719 64.441406 83.625 64.441406 72.191406 C 64.441406 69.464844 64.992188 66.882812 65.941406 64.511719 Z M 199.144531 85.910156 C 195.570312 85.910156 192.230469 86.902344 189.335938 88.492188 C 188.683594 88.703125 188.078125 89.007812 187.515625 89.402344 L 140.050781 123.472656 C 139.199219 124.085938 138.527344 124.851562 138.027344 125.773438 C 133.765625 129.527344 130.628906 134.613281 130.628906 140.722656 C 130.628906 151.992188 139.914062 161.277344 151.183594 161.277344 C 154.542969 161.277344 157.164062 159.46875 159.933594 158.039062 C 161.429688 158.054688 162.789062 157.625 164.003906 156.753906 L 202.277344 129.226562 L 220.863281 135.128906 L 191.636719 182.769531 C 191.316406 183.296875 191.070312 183.859375 190.902344 184.453125 C 187.890625 189.269531 185.871094 194.816406 185.5625 200.859375 C 185.402344 201.058594 185.257812 201.261719 185.121094 201.476562 L 162.785156 236.644531 L 120.351562 236.644531 C 107.1875 236.644531 96.371094 247.460938 96.371094 260.625 C 96.371094 273.789062 107.1875 284.605469 120.351562 284.605469 L 171.269531 284.605469 C 182.371094 284.605469 192.804688 279.210938 199.226562 270.152344 L 219.097656 242.105469 L 251.496094 262.097656 L 240.710938 317.621094 C 240.613281 318.09375 240.570312 318.570312 240.574219 319.050781 C 240.429688 320.105469 240.253906 321.152344 240.253906 322.289062 C 240.253906 335.453125 251.070312 346.269531 264.234375 346.269531 C 274.214844 346.269531 281.832031 339.484375 285.417969 330.734375 C 286.695312 329.6875 287.488281 328.351562 287.800781 326.734375 L 301.691406 253.613281 C 301.792969 253.050781 301.824219 252.484375 301.785156 251.914062 C 301.847656 251.441406 301.917969 251.15625 301.917969 250.347656 C 301.917969 245.359375 299.816406 241.015625 296.859375 237.472656 C 296.460938 236.515625 295.871094 235.691406 295.09375 235 L 262.039062 205.691406 L 271.96875 186.058594 C 277.644531 195.574219 287.898438 201.542969 299.082031 201.542969 L 338.570312 201.542969 C 349.84375 201.542969 359.128906 192.257812 359.128906 180.988281 C 359.128906 169.71875 349.84375 160.433594 338.570312 160.433594 L 302.679688 160.433594 L 296.378906 137.589844 L 294.960938 132.4375 C 294.425781 123.292969 288.957031 115.808594 281.539062 111.214844 C 280.925781 110.285156 280.136719 109.550781 279.167969 109.007812 L 261.988281 99.4375 C 261.398438 99.109375 260.773438 98.875 260.113281 98.730469 L 204.175781 86.523438 C 203.640625 86.410156 203.101562 86.363281 202.558594 86.378906 C 201.476562 86.171875 200.449219 85.910156 199.144531 85.910156 Z M 23.183594 91.878906 C 22.414062 91.890625 21.671875 92.03125 20.949219 92.296875 C 20.226562 92.5625 19.570312 92.941406 18.972656 93.425781 C 18.378906 93.914062 17.882812 94.484375 17.476562 95.140625 C 17.074219 95.796875 16.792969 96.496094 16.625 97.25 C 16.460938 98 16.421875 98.757812 16.507812 99.519531 C 16.597656 100.285156 16.808594 101.011719 17.144531 101.703125 C 17.476562 102.398438 17.914062 103.015625 18.457031 103.5625 C 19 104.105469 19.617188 104.546875 20.308594 104.886719 L 21.617188 105.554688 C 21.628906 105.558594 21.636719 105.5625 21.644531 105.566406 C 37.917969 113.699219 52.765625 124.433594 65.699219 137.230469 L 85.53125 184.480469 C 85.792969 185.105469 86.136719 185.675781 86.566406 186.195312 C 86.996094 186.714844 87.492188 187.164062 88.054688 187.535156 C 88.617188 187.910156 89.21875 188.195312 89.867188 188.390625 C 90.511719 188.585938 91.171875 188.683594 91.847656 188.683594 L 132.957031 188.683594 C 137.214844 188.683594 140.460938 192.136719 139.714844 196.738281 C 139.210938 199.851562 135.933594 202.386719 132.234375 202.386719 L 84.996094 202.386719 C 82.210938 202.386719 79.921875 200.761719 78.8125 198.410156 C 78.316406 197.359375 77.597656 196.488281 76.660156 195.800781 L 77.96875 196.671875 L 63.773438 165.371094 C 63.425781 164.179688 62.800781 163.160156 61.898438 162.308594 C 61.894531 162.304688 61.890625 162.296875 61.886719 162.292969 C 61.453125 161.871094 60.976562 161.507812 60.453125 161.210938 C 59.925781 160.914062 59.371094 160.691406 58.785156 160.539062 C 58.203125 160.390625 57.609375 160.316406 57.003906 160.324219 C 56.398438 160.328125 55.808594 160.414062 55.226562 160.578125 C 54.644531 160.738281 54.09375 160.976562 53.574219 161.285156 C 53.054688 161.59375 52.585938 161.964844 52.164062 162.394531 C 51.742188 162.828125 51.386719 163.308594 51.09375 163.835938 C 50.796875 164.363281 50.578125 164.921875 50.429688 165.503906 L 30.515625 204.179688 C 30.167969 204.855469 29.9375 205.574219 29.828125 206.328125 C 29.71875 207.082031 29.734375 207.832031 29.875 208.582031 C 30.015625 209.328125 30.273438 210.035156 30.648438 210.699219 C 31.027344 211.359375 31.5 211.945312 32.070312 212.449219 L 67.785156 244.113281 L 67.238281 242.625 C 67.625 243.675781 68.230469 244.578125 69.058594 245.328125 C 70.460938 246.617188 71.292969 248.34375 71.292969 250.347656 C 71.292969 250.21875 71.273438 250.492188 71.171875 251.3125 C 71.035156 252.394531 71.152344 253.453125 71.519531 254.484375 L 70.957031 252.890625 L 58.472656 318.597656 L 64.132812 318.597656 C 63.335938 318.597656 62.558594 318.734375 61.808594 319.003906 C 61.054688 319.277344 60.371094 319.667969 59.757812 320.179688 C 59.144531 320.6875 58.632812 321.289062 58.230469 321.976562 C 57.824219 322.667969 57.546875 323.40625 57.402344 324.191406 C 56.507812 328.960938 52.410156 332.566406 47.3125 332.566406 C 41.550781 332.566406 37.035156 328.050781 37.035156 322.289062 C 37.035156 321.628906 37.109375 320.957031 37.25 320.242188 C 37.257812 320.164062 37.269531 320.082031 37.277344 320 L 48.929688 260.050781 C 49.074219 259.3125 49.09375 258.570312 48.992188 257.824219 C 48.890625 257.078125 48.675781 256.367188 48.339844 255.695312 C 48.003906 255.023438 47.570312 254.417969 47.035156 253.890625 C 46.503906 253.359375 45.898438 252.925781 45.222656 252.597656 L 26.421875 243.363281 C 26.015625 243.140625 25.59375 242.964844 25.152344 242.828125 C 24.710938 242.695312 24.261719 242.605469 23.800781 242.558594 C 23.339844 242.515625 22.882812 242.519531 22.421875 242.566406 C 21.964844 242.617188 21.511719 242.710938 21.074219 242.851562 C 20.632812 242.988281 20.210938 243.171875 19.808594 243.398438 C 19.40625 243.621094 19.027344 243.882812 18.679688 244.1875 C 18.328125 244.488281 18.011719 244.820312 17.730469 245.183594 C 17.445312 245.550781 17.203125 245.941406 17 246.355469 C 16.796875 246.769531 16.632812 247.199219 16.519531 247.644531 C 16.402344 248.09375 16.328125 248.546875 16.304688 249.007812 C 16.277344 249.46875 16.300781 249.925781 16.367188 250.382812 C 16.4375 250.839844 16.546875 251.285156 16.707031 251.71875 C 16.863281 252.152344 17.0625 252.566406 17.304688 252.960938 C 17.546875 253.355469 17.824219 253.71875 18.140625 254.058594 C 18.453125 254.394531 18.800781 254.699219 19.175781 254.964844 C 19.550781 255.234375 19.953125 255.460938 20.375 255.648438 L 34.480469 262.578125 L 23.785156 317.621094 C 23.691406 318.09375 23.648438 318.570312 23.652344 319.050781 C 23.503906 320.105469 23.332031 321.152344 23.332031 322.289062 C 23.332031 335.453125 34.148438 346.269531 47.3125 346.269531 C 57.289062 346.269531 64.910156 339.484375 68.496094 330.734375 C 69.773438 329.6875 70.566406 328.351562 70.878906 326.734375 L 84.769531 253.613281 C 84.871094 253.050781 84.902344 252.484375 84.863281 251.914062 C 84.925781 251.441406 84.996094 251.15625 84.996094 250.347656 C 84.996094 245.359375 82.890625 241.015625 79.9375 237.472656 C 79.535156 236.515625 78.949219 235.691406 78.171875 235 L 45.144531 205.71875 L 56.773438 183.101562 L 66.300781 204.113281 C 66.507812 204.574219 66.761719 205.007812 67.0625 205.410156 C 70.558594 211.734375 77.273438 216.089844 84.996094 216.089844 L 132.234375 216.089844 C 142.183594 216.089844 151.554688 209.292969 153.230469 198.921875 C 155.265625 186.351562 145.347656 174.980469 132.957031 174.980469 L 96.398438 174.980469 L 77.714844 130.472656 C 77.371094 129.648438 76.886719 128.921875 76.257812 128.289062 C 62.101562 114.097656 45.726562 102.285156 27.800781 93.324219 L 27.773438 93.308594 L 26.488281 92.652344 C 25.453125 92.113281 24.351562 91.855469 23.183594 91.878906 Z M 199.144531 99.613281 C 199.5625 99.613281 200.105469 99.683594 200.871094 99.878906 C 201.75 100.105469 202.636719 100.15625 203.535156 100.027344 L 202.464844 100.175781 L 256.207031 111.910156 L 270.175781 119.683594 L 269.347656 117.195312 C 269.65625 118.117188 270.136719 118.933594 270.789062 119.648438 C 271.445312 120.367188 272.21875 120.917969 273.105469 121.304688 C 277.953125 123.414062 281.363281 128.1875 281.363281 133.871094 C 281.363281 136.246094 280.714844 138.457031 279.53125 140.546875 C 279.074219 141.351562 278.792969 142.214844 278.6875 143.136719 C 278.578125 144.054688 278.65625 144.957031 278.914062 145.847656 L 278.164062 143.453125 L 264.316406 170.832031 L 264.234375 170.871094 L 264.261719 170.9375 L 247.425781 204.234375 C 247.085938 204.910156 246.863281 205.621094 246.757812 206.371094 C 246.652344 207.117188 246.667969 207.863281 246.8125 208.609375 C 246.953125 209.351562 247.210938 210.050781 247.582031 210.710938 C 247.957031 211.367188 248.425781 211.949219 248.992188 212.449219 L 284.710938 244.113281 L 284.160156 242.625 C 284.542969 243.675781 285.144531 244.574219 285.96875 245.328125 C 287.371094 246.617188 288.214844 248.34375 288.214844 250.347656 C 288.214844 250.21875 288.199219 250.492188 288.09375 251.3125 C 287.957031 252.394531 288.074219 253.453125 288.441406 254.484375 L 287.882812 252.890625 L 275.394531 318.597656 L 281.054688 318.597656 C 280.257812 318.59375 279.480469 318.730469 278.726562 319 C 277.972656 319.273438 277.289062 319.664062 276.671875 320.175781 C 276.058594 320.683594 275.546875 321.285156 275.140625 321.976562 C 274.734375 322.664062 274.457031 323.402344 274.3125 324.191406 C 273.417969 328.960938 269.332031 332.566406 264.234375 332.566406 C 258.472656 332.566406 253.957031 328.050781 253.957031 322.289062 C 253.957031 321.628906 254.03125 320.957031 254.171875 320.242188 C 254.183594 320.164062 254.191406 320.082031 254.199219 320 L 265.839844 260.050781 C 265.972656 259.367188 266 258.679688 265.925781 257.988281 C 265.847656 257.296875 265.671875 256.632812 265.394531 255.996094 C 265.113281 255.359375 264.746094 254.78125 264.292969 254.253906 C 263.835938 253.730469 263.3125 253.285156 262.722656 252.917969 L 213.117188 222.3125 L 213.769531 224.933594 C 213.535156 223.984375 213.113281 223.125 212.503906 222.355469 C 211.898438 221.585938 211.160156 220.972656 210.292969 220.519531 C 203.667969 217.066406 199.144531 210.351562 199.144531 202.386719 C 199.144531 197.917969 200.597656 193.855469 203.066406 190.421875 C 203.667969 189.585938 204.058594 188.660156 204.242188 187.644531 C 204.425781 186.628906 204.378906 185.625 204.109375 184.628906 L 204.871094 187.410156 L 237.121094 134.832031 C 237.394531 134.390625 237.613281 133.921875 237.78125 133.429688 C 237.945312 132.9375 238.054688 132.433594 238.105469 131.914062 C 238.15625 131.398438 238.148438 130.878906 238.078125 130.363281 C 238.011719 129.847656 237.890625 129.347656 237.707031 128.859375 C 237.527344 128.371094 237.292969 127.910156 237.007812 127.476562 C 236.71875 127.042969 236.390625 126.644531 236.011719 126.285156 C 235.636719 125.929688 235.222656 125.617188 234.777344 125.351562 C 234.328125 125.085938 233.859375 124.875 233.363281 124.71875 L 203.144531 115.136719 C 202.113281 114.808594 201.0625 114.726562 199.992188 114.898438 C 198.925781 115.066406 197.949219 115.46875 197.070312 116.097656 L 156.671875 145.152344 C 156.273438 145.371094 155.90625 145.625 155.558594 145.914062 C 154.292969 146.984375 152.835938 147.574219 151.183594 147.574219 C 147.3125 147.574219 144.332031 144.59375 144.332031 140.722656 C 144.332031 138.21875 145.628906 136.152344 147.636719 134.925781 C 148 134.703125 148.339844 134.449219 148.652344 134.164062 C 148.679688 134.144531 148.707031 134.121094 148.734375 134.097656 L 194.191406 101.484375 L 192.894531 101.6875 C 193.832031 101.539062 194.703125 101.207031 195.503906 100.695312 C 196.613281 99.988281 197.804688 99.613281 199.144531 99.613281 Z M 287.210938 155.910156 L 290.851562 169.105469 C 291.050781 169.828125 291.359375 170.5 291.78125 171.125 C 292.203125 171.746094 292.710938 172.28125 293.308594 172.738281 C 293.90625 173.191406 294.558594 173.539062 295.269531 173.777344 C 295.980469 174.019531 296.710938 174.136719 297.460938 174.136719 L 338.570312 174.136719 C 342.445312 174.136719 345.425781 177.117188 345.425781 180.988281 C 345.425781 184.859375 342.445312 187.839844 338.570312 187.839844 L 299.082031 187.839844 C 292.28125 187.839844 286.097656 184.019531 283.050781 177.9375 L 283.035156 177.925781 L 279.597656 170.992188 Z M 190.257812 218.941406 C 193.042969 223.410156 196.835938 227.222656 201.246094 230.167969 C 201.820312 231.136719 202.585938 231.917969 203.546875 232.507812 L 207.414062 234.890625 L 188.050781 262.230469 C 184.195312 267.671875 177.941406 270.902344 171.269531 270.902344 L 120.351562 270.902344 C 114.589844 270.902344 110.074219 266.386719 110.074219 260.625 C 110.074219 254.863281 114.589844 250.347656 120.351562 250.347656 L 166.546875 250.347656 C 167.71875 250.347656 168.816406 250.0625 169.84375 249.496094 C 170.871094 248.929688 171.699219 248.152344 172.328125 247.164062 Z M 190.257812 218.941406 " fill-opacity="1" fill-rule="nonzero"/></g></svg>